<svg width="19" height="12" viewBox="0 0 19 12" fill="none" xmlns="http://www.w3.org/2000/svg">
<path d="M13.0504 6.02531L17.9201 1.98829V10.0162L13.0504 6.02531ZM6.77537 6.70897L8.48544 8.1254C8.75382 8.34296 9.10375 8.47441 9.48615 8.47441H9.4996H9.5099C9.89308 8.47441 10.243 8.34221 10.5146 8.12313L10.5122 8.12465L12.2223 6.70822L17.4206 10.9681H1.57944L6.77537 6.70897ZM1.57232 1.03116H17.4301L9.81312 7.34353C9.72748 7.40817 9.62146 7.44331 9.51227 7.44325H9.50119H9.4909C9.38132 7.44338 9.27495 7.40795 9.18926 7.34278L9.19005 7.34353L1.57232 1.03116ZM1.08067 1.98754L5.94962 6.02455L1.08067 10.0132V1.98754ZM18.1814 0.143532C17.9914 0.0528801 17.7681 0 17.5314 0H1.47177C1.2423 5.23022e-05 1.01599 0.0509995 0.8107 0.14882L0.819409 0.145042C0.573645 0.260707 0.366674 0.439644 0.221877 0.66164C0.0770804 0.883635 0.000227494 1.13984 0 1.40132L0 10.5964C0.000419129 10.9685 0.155531 11.3253 0.431302 11.5885C0.707073 11.8516 1.08098 11.9996 1.47098 12H17.529C17.919 11.9996 18.2929 11.8516 18.5687 11.5885C18.8445 11.3253 18.9996 10.9685 19 10.5964V1.40132C19 0.852125 18.6683 0.376204 18.1853 0.147309L18.1766 0.143532H18.1814Z" fill="#0F4E6D"/>
</svg>
