<?xml version="1.0" encoding="UTF-8"?>
<svg viewBox="0 0 59 32" xmlns="http://www.w3.org/2000/svg">
<path d="m30.651 24.967c-0.1681 0.1466-0.3449 0.2847-0.5034 0.4397-1.5706 1.5423-3.1433 3.0803-4.7021 4.6374-0.2996 0.2995-0.5648 0.4132-0.9971 0.2475-5.821-2.2199-9.3168-6.3368-10.166-12.427-1.1103-7.9321 4.5705-15.351 12.596-16.676 1.5879-0.26047 3.2067-0.28232 4.8012-0.06479 0.0173 0.23261-0.1671 0.30908-0.2803 0.41954-1.1383 1.127-2.2863 2.2411-3.4128 3.3787-0.2282 0.22868-0.5207 0.38479-0.8397 0.44823-4.5943 1.0855-7.4832 3.9013-8.5763 8.4111-1.0672 4.4005 1.0877 9.2407 5.0125 11.555 0.2825 0.1668 0.4474 0.1424 0.6554-0.0871 0.3461-0.3813 0.719-0.7435 1.078-1.1046 0.056-0.2602 0.3007-0.3643 0.4668-0.5311 1.7721-1.7546 3.5479-3.5054 5.3272-5.2523 0.0891-0.0813 0.1723-0.1686 0.2491-0.2613 0.1261-0.1646 0.277-0.3473 0.0959-0.5459-0.1811-0.1987-0.3805-0.0839-0.553 0.0467-0.2156 0.1668-0.4366 0.3346-0.6468 0.5194-0.6226 0.5466-1.3353 0.9844-2.1074 1.2948-2.1678 0.9177-4.2892-0.1572-5.3575-1.8195-1.1157-1.7377-0.7287-3.3883 0.3234-4.9847 0.3485-0.5103 0.7523-0.9818 1.2041-1.4063 1.2213-1.1864 2.4297-2.3855 3.6403-3.5826 0.1775-0.18685 0.3811-0.34779 0.6047-0.47796 1.7021-1.6782 3.415-3.3447 5.0966-5.042 0.345-0.34839 0.6242-0.40043 1.078-0.22306 5.3715 2.1158 8.7401 5.9289 9.7879 11.535 1.5868 8.4876-4.41 16.293-12.737 17.51-1.3844 0.221-2.7941 0.2421-4.1847 0.0627-0.056-0.1859 0.1014-0.2496 0.1898-0.3367 1.2468-1.2342 2.4954-2.4667 3.7459-3.6973 0.1696-0.1698 0.3832-0.2903 0.6176-0.3484 4.4736-1.1779 7.7183-4.6809 8.2357-9.2014 0.5196-4.4749-1.2257-8.0192-5.0222-10.568-0.2232-0.14976-0.373-0.16676-0.5671 0.0478-0.3675 0.40574-0.7642 0.78705-1.1491 1.179-0.0797 0.38662-0.4053 0.59268-0.6715 0.81998-1.3259 1.1301-2.4998 2.411-3.7546 3.6113-0.539 0.5119-1.0693 1.0239-1.5738 1.5624-0.2005 0.2124-0.5455 0.495-0.263 0.7796 0.2824 0.2847 0.5702-0.0542 0.7847-0.2496 0.705-0.6373 1.4574-1.2055 2.3327-1.606 2.6949-1.2289 5.0665 0.2656 5.987 2.4047 0.4593 1.0622 0.3849 2.1711-0.07 3.2385-0.4004 0.9301-0.9791 1.7755-1.7043 2.4897-1.1599 1.1482-2.3273 2.2921-3.4893 3.4371-0.1644 0.1752-0.3617 0.3174-0.5811 0.4185z" fill="#24B8FE"/>
<path d="m5.4458 1.4999c1.0338 0.01062 1.6385 1.0462 1.1286 1.9841-0.8171 1.5061-1.5436 3.0484-2.0535 4.682-2.1861 7.0102-1.5314 13.754 1.964 20.232 0.48185 0.8912 0.2738 1.743-0.52497 2.0755-0.69313 0.2889-1.3679 0.0329-1.7819-0.7-1.2617-2.2172-2.2008-4.5981-2.7898-7.0728-1.6708-7.1016-0.76104-13.869 2.7294-20.303 0.28997-0.53638 0.6705-0.90495 1.328-0.89751z" fill="#24B8FE"/>
<path d="m58.271 14.94c-0.014 5.9406-1.1966 10.465-3.5206 14.702-0.3525 0.6373-0.8689 0.9336-1.4607 0.8497-0.2852-0.0407-0.55-0.1694-0.7562-0.3677-0.2063-0.1983-0.3435-0.4559-0.3918-0.7358-0.0722-0.376 0.0711-0.6979 0.249-1.0186 1.4873-2.6463 2.4736-5.5371 2.9105-8.5312 0.8117-5.6422-0.1153-11.001-2.862-16.038-0.1983-0.36326-0.3924-0.72439-0.2878-1.162 0.1304-0.54382 0.5293-0.94532 1.0338-1.0292 0.6554-0.10621 1.1501 0.10622 1.4854 0.68934 0.7887 1.3831 1.45 2.8331 1.9759 4.3325 1.0736 3.0547 1.6428 6.1934 1.6245 8.3092z" fill="#24B8FE"/>
<path d="m9.3157 3.6475c1.0651 0 1.6612 1.0473 1.1233 2.0181-0.88437 1.5656-1.5632 3.2356-2.0201 4.9698-1.3654 5.3108-0.78009 10.409 1.756 15.295 0.0948 0.1827 0.2015 0.359 0.2943 0.5417 0.3546 0.7095 0.1444 1.4668-0.50238 1.8194-0.67912 0.3697-1.4574 0.1434-1.8627-0.5661-0.85566-1.484-1.5346-3.0604-2.0233-4.6979-1.8951-6.4182-1.2576-12.58 1.9123-18.485 0.28674-0.53426 0.65971-0.91769 1.3227-0.89539z" fill="#24B8FE"/>
<path d="m53.838 16c-0.0475 4.1222-1.0047 7.9385-2.9698 11.501-0.4474 0.8114-1.2343 1.0855-1.9468 0.6851-0.6813-0.3824-0.8441-1.1631-0.4064-1.9618 1.722-3.1145 2.6268-6.6037 2.632-10.15 0.0053-3.5467-0.8891-7.0385-2.6018-10.158-0.2156-0.38556-0.3719-0.77219-0.2533-1.2162 0.0634-0.24996 0.2022-0.4751 0.3981-0.64576 0.1959-0.17065 0.4397-0.2788 0.6992-0.31018 0.6123-0.07222 1.0844 0.14445 1.3917 0.6819 0.8935 1.5785 1.5985 3.2537 2.1009 4.9921 0.6194 2.1413 0.941 4.3556 0.9562 6.5821z" fill="#24B8FE"/>
<path d="m28.575 7.143c-1.4811 1.487-2.9615 2.9719-4.4412 4.4547-0.8473 0.855-1.521 1.8205-1.7722 3.0112-0.36 1.7079 0.3234 3.0388 1.6353 4.0967 1.2526 1.0101 2.6518 1.163 4.1426 0.5735 1.0133-0.4004 1.8616-1.0419 2.6421-1.7791 0.2371-0.2241 0.5012-0.3505 0.7772-0.1062s0.1789 0.5375-0.0507 0.7616c-2.0014 1.9621-4.0078 3.92-6.0193 5.8737-0.0531 0.0429-0.1102 0.081-0.1703 0.1136-2.1657-1.1683-3.7309-2.8433-4.535-5.1641-1.8487-5.3363 1.7064-11.029 7.3765-11.819 0.1379-0.01313 0.2764-0.0188 0.415-0.01699z" fill="#222"/>
<path d="m30.651 24.967c1.3517-1.3437 2.7132-2.6788 4.0509-4.0362 0.981-0.9963 1.686-2.136 1.9242-3.5433 0.4571-2.6873-2.5871-5.81-5.8921-4.3697-0.9476 0.4131-1.7593 1.0101-2.5128 1.6994-0.2749 0.2507-0.5929 0.6256-0.9637 0.2592-0.3708-0.3665 0.0065-0.6947 0.2674-0.9496 2.0405-1.9926 4.0229-4.0425 6.1314-5.9682 1.714 0.95594 3.0819 2.2379 3.9701 3.9831 2.7348 5.3723-0.5562 11.843-6.5626 12.904-0.1371 0.0151-0.2749 0.0222-0.4128 0.0213z" fill="#222"/>
<path d="m9.4537 16.075c0.03234-3.4148 0.84403-6.5704 2.4793-9.5136 0.3449-0.61711 0.7944-0.84972 1.4412-0.77537 0.2683 0.03374 0.5194 0.14825 0.7191 0.32791 0.1997 0.17965 0.3382 0.41567 0.3966 0.67582 0.0981 0.37281-0.0129 0.70739-0.1908 1.0292-1.4047 2.5031-2.1455 5.315-2.1538 8.1753-0.0083 2.8602 0.7162 5.6762 2.1064 8.1871 0.4452 0.8137 0.2759 1.6113-0.4312 1.9873s-1.4596 0.0999-1.9048-0.6967c-1.6069-2.8795-2.4536-6.1108-2.462-9.3969z" fill="#24B8FE"/>
<path d="m49.398 15.584c-0.0226 3.7409-0.8074 6.8657-2.4039 9.7888-0.3945 0.7243-1.037 1.0111-1.715 0.7806-0.7966-0.2708-1.1275-1.1492-0.6996-1.9384 0.861-1.5584 1.4719-3.2388 1.811-4.9815 0.7481-3.9462 0.166-7.6931-1.7463-11.241-0.4635-0.86247-0.2404-1.7069 0.539-2.0383 0.3132-0.13391 0.6664-0.14554 0.988-0.03254 0.3216 0.11299 0.5877 0.34217 0.7442 0.64115 1.1689 2.074 1.9402 4.3423 2.2756 6.6915 0.1326 0.9145 0.2232 1.8311 0.207 2.3293z" fill="#24B8FE"/>
</svg>
