<svg width="44" height="44" viewBox="0 0 44 44" fill="none" xmlns="http://www.w3.org/2000/svg">
<path d="M23.8851 3.66852C25.2229 3.66338 26.5608 3.67683 27.8982 3.70885L28.2539 3.72168C28.6646 3.73635 29.0697 3.75468 29.5592 3.77668C31.5099 3.86835 32.8409 4.17635 34.0087 4.62918C35.2187 5.09485 36.2381 5.72552 37.2574 6.74485C38.1894 7.66079 38.9108 8.76875 39.3712 9.99168C39.8241 11.1595 40.1321 12.4923 40.2237 14.443C40.2457 14.9307 40.2641 15.3377 40.2787 15.7483L40.2897 16.104C40.3223 17.4409 40.3364 18.7781 40.3319 20.1154L40.3337 21.483V23.8847C40.3383 25.2225 40.3242 26.5604 40.2916 27.8979L40.2806 28.2535C40.2659 28.6642 40.2476 29.0693 40.2256 29.5588C40.1339 31.5095 39.8222 32.8405 39.3712 34.0083C38.9123 35.2326 38.1908 36.3414 37.2574 37.257C36.3407 38.1889 35.2321 38.9102 34.0087 39.3709C32.8409 39.8237 31.5099 40.1317 29.5592 40.2234C29.0697 40.2454 28.6646 40.2637 28.2539 40.2783L27.8982 40.2894C26.5608 40.3219 25.2229 40.336 23.8851 40.3315L22.5174 40.3334H20.1176C18.7797 40.3379 17.4419 40.3238 16.1044 40.2912L15.7487 40.2802C15.3135 40.2644 14.8784 40.2461 14.4434 40.2252C12.4927 40.1335 11.1617 39.8219 9.99207 39.3709C8.76866 38.9113 7.66051 38.1899 6.74524 37.257C5.81216 36.3409 5.09015 35.2322 4.62957 34.0083C4.17674 32.8405 3.86874 31.5095 3.77707 29.5588C3.75666 29.1238 3.73832 28.6887 3.72207 28.2535L3.71291 27.8979C3.67911 26.5604 3.66383 25.2226 3.66707 23.8847V20.1154C3.66196 18.7781 3.6754 17.4409 3.70741 16.104L3.72024 15.7483C3.73491 15.3377 3.75324 14.9307 3.77524 14.443C3.86691 12.4905 4.17491 11.1613 4.62774 9.99168C5.08859 8.76815 5.81201 7.6605 6.74707 6.74668C7.66171 5.81306 8.76917 5.0904 9.99207 4.62918C11.1617 4.17635 12.4909 3.86835 14.4434 3.77668L15.7487 3.72168L16.1044 3.71252C17.4412 3.67873 18.7785 3.66345 20.1157 3.66668L23.8851 3.66852ZM22.0004 12.8352C20.7858 12.818 19.58 13.0424 18.4529 13.4953C17.3258 13.9482 16.2999 14.6206 15.435 15.4734C14.57 16.3263 13.8831 17.3425 13.4143 18.4631C12.9455 19.5837 12.7041 20.7862 12.7041 22.0009C12.7041 23.2156 12.9455 24.4182 13.4143 25.5388C13.8831 26.6594 14.57 27.6756 15.435 28.5284C16.2999 29.3812 17.3258 30.0536 18.4529 30.5066C19.58 30.9595 20.7858 31.1839 22.0004 31.1667C24.4316 31.1667 26.7631 30.2009 28.4822 28.4818C30.2013 26.7627 31.1671 24.4312 31.1671 22C31.1671 19.5689 30.2013 17.2373 28.4822 15.5182C26.7631 13.7991 24.4316 12.8352 22.0004 12.8352ZM22.0004 16.5018C22.731 16.4884 23.457 16.6206 24.1359 16.8909C24.8148 17.1611 25.433 17.564 25.9545 18.0758C26.476 18.5877 26.8902 19.1984 27.1731 19.8721C27.4559 20.5459 27.6016 21.2693 27.6017 22C27.6019 22.7307 27.4564 23.4541 27.1738 24.128C26.8912 24.8019 26.4771 25.4127 25.9558 25.9247C25.4345 26.4367 24.8164 26.8398 24.1376 27.1103C23.4588 27.3807 22.7328 27.5132 22.0022 27.5C20.5436 27.5 19.1446 26.9206 18.1132 25.8891C17.0817 24.8577 16.5022 23.4587 16.5022 22C16.5022 20.5413 17.0817 19.1424 18.1132 18.1109C19.1446 17.0795 20.5436 16.5 22.0022 16.5L22.0004 16.5018ZM31.6254 10.0852C31.034 10.1089 30.4746 10.3605 30.0645 10.7873C29.6544 11.2141 29.4254 11.7831 29.4254 12.375C29.4254 12.9669 29.6544 13.5359 30.0645 13.9627C30.4746 14.3896 31.034 14.6412 31.6254 14.6648C32.2332 14.6648 32.8161 14.4234 33.2459 13.9936C33.6756 13.5639 33.9171 12.981 33.9171 12.3732C33.9171 11.7654 33.6756 11.1825 33.2459 10.7527C32.8161 10.323 32.2332 10.0815 31.6254 10.0815V10.0852Z" fill="#0F4E6D"/>
</svg>
