<?xml version="1.0" encoding="UTF-8"?>
<svg fill="none" viewBox="0 0 37 37" xmlns="http://www.w3.org/2000/svg">
<path d="m11.84 3.0359h12.75c4.8573 0 8.8039 3.9466 8.8039 8.8039v12.75c0 2.335-0.9275 4.5743-2.5786 6.2253-1.651 1.6511-3.8903 2.5786-6.2253 2.5786h-12.75c-4.8573 0-8.8039-3.9466-8.8039-8.8039v-12.75c0-2.3349 0.92755-4.5742 2.5786-6.2253 1.651-1.6511 3.8904-2.5786 6.2253-2.5786zm-0.3036 3.0358c-1.4493 0-2.8392 0.57572-3.864 1.6005-1.0248 1.0248-1.6005 2.4147-1.6005 3.864v13.358c0 3.0206 2.4438 5.4645 5.4645 5.4645h13.358c1.4493 0 2.8392-0.5757 3.864-1.6005s1.6005-2.4147 1.6005-3.864v-13.358c0-3.0206-2.4439-5.4645-5.4645-5.4645h-13.358zm14.648 2.2769c0.5032 0 0.9859 0.1999 1.3417 0.55573s0.5557 0.83844 0.5557 1.3417c0 0.5032-0.1999 0.9858-0.5557 1.3417-0.3558 0.3558-0.8385 0.5557-1.3417 0.5557s-0.9858-0.1999-1.3416-0.5557c-0.3559-0.3559-0.5558-0.8385-0.5558-1.3417 0-0.50323 0.1999-0.98584 0.5558-1.3417 0.3558-0.35583 0.8384-0.55573 1.3416-0.55573zm-7.969 2.2769c2.0128 0 3.9433 0.7996 5.3666 2.2229s2.2229 3.3538 2.2229 5.3667c0 2.0128-0.7996 3.9433-2.2229 5.3666s-3.3538 2.2229-5.3666 2.2229c-2.0129 0-3.9434-0.7996-5.3667-2.2229s-2.2229-3.3538-2.2229-5.3666c0-2.0129 0.7996-3.9434 2.2229-5.3667s3.3538-2.2229 5.3667-2.2229zm0 3.0358c-1.2078 0-2.366 0.4798-3.22 1.3338s-1.3338 2.0122-1.3338 3.22c0 1.2077 0.4798 2.3659 1.3338 3.2199s2.0122 1.3338 3.22 1.3338c1.2077 0 2.3659-0.4798 3.2199-1.3338s1.3338-2.0122 1.3338-3.2199c0-1.2078-0.4798-2.366-1.3338-3.22s-2.0122-1.3338-3.2199-1.3338z" fill="#0F4E6D"/>
</svg>
