<svg width="154" height="39" viewBox="0 0 154 39" fill="none" xmlns="http://www.w3.org/2000/svg">
<path d="M36.6507 28.9669C36.4826 29.1135 36.3058 29.2516 36.1473 29.4066C34.5767 30.9489 33.004 32.4869 31.4453 34.044C31.1456 34.3435 30.8804 34.4572 30.4481 34.2915C24.6271 32.0716 21.1313 27.9547 20.2819 21.8643C19.1716 13.9322 24.8524 6.51308 32.8779 5.18858C34.4658 4.92811 36.0846 4.90626 37.6791 5.12379C37.6964 5.3564 37.512 5.43287 37.3989 5.54333C36.2605 6.67028 35.1125 7.78447 33.986 8.92203C33.7578 9.15071 33.4653 9.30682 33.1463 9.37026C28.552 10.4558 25.6631 13.2715 24.57 17.7814C23.5028 22.1819 25.6577 27.0221 29.5825 29.3365C29.865 29.5033 30.0299 29.4789 30.2379 29.2494C30.584 28.8681 30.9569 28.5059 31.3159 28.1448C31.372 27.8846 31.6167 27.7805 31.7827 27.6137C33.5548 25.8591 35.3306 24.1083 37.11 22.3614C37.199 22.2801 37.2822 22.1928 37.359 22.1001C37.4851 21.9355 37.636 21.7528 37.4549 21.5542C37.2738 21.3555 37.0744 21.4703 36.9019 21.6009C36.6863 21.7677 36.4653 21.9355 36.2551 22.1203C35.6325 22.6669 34.9198 23.1047 34.1477 23.4151C31.9799 24.3328 29.8585 23.2579 28.7902 21.5956C27.6745 19.8579 28.0615 18.2073 29.1136 16.6109C29.4622 16.1006 29.8659 15.6291 30.3177 15.2046C31.539 14.0182 32.7474 12.8191 33.958 11.622C34.1355 11.4352 34.3391 11.2742 34.5627 11.144C36.2648 9.46585 37.9777 7.79934 39.6593 6.10203C40.0043 5.75364 40.2835 5.7016 40.7373 5.87897C46.1088 7.99478 49.4774 11.8079 50.5252 17.4139C52.112 25.9015 46.1153 33.7073 37.788 34.9234C36.4036 35.1444 34.9939 35.1655 33.6033 34.9861C33.5473 34.8002 33.7047 34.7365 33.7931 34.6494C35.0399 33.4152 36.2886 32.1827 37.539 30.9521C37.7086 30.7823 37.9223 30.6618 38.1567 30.6037C42.6302 29.4258 45.8749 25.9228 46.3923 21.4023C46.9119 16.9274 45.1667 13.3831 41.3701 10.8339C41.1469 10.6841 40.9971 10.6671 40.8031 10.8817C40.4355 11.2874 40.0388 11.6687 39.654 12.0607C39.5742 12.4473 39.2486 12.6534 38.9824 12.8807C37.6565 14.0108 36.4826 15.2917 35.2278 16.492C34.6889 17.0039 34.1585 17.5159 33.654 18.0544C33.4535 18.2668 33.1086 18.5494 33.391 18.834C33.6734 19.1187 33.9612 18.7798 34.1757 18.5844C34.8807 17.9471 35.6332 17.3789 36.5085 16.9784C39.2034 15.7495 41.5749 17.244 42.4955 19.3831C42.9547 20.4453 42.8803 21.5542 42.4254 22.6216C42.025 23.5517 41.4463 24.3971 40.7211 25.1113C39.5612 26.2595 38.3938 27.4034 37.2318 28.5484C37.0674 28.7236 36.8701 28.8658 36.6507 28.9669Z" fill="#24B8FE"/>
<path d="M11.4458 5.49987C12.4796 5.51049 13.0843 6.54608 12.5744 7.48396C11.7573 8.99009 11.0308 10.5323 10.5209 12.1659C8.33481 19.1761 8.9895 25.92 12.485 32.3977C12.9668 33.2889 12.7588 34.1407 11.96 34.4732C11.2669 34.7621 10.5921 34.5061 10.1781 33.7732C8.91647 31.556 7.97736 29.1751 7.38836 26.7004C5.71752 19.5988 6.62732 12.8312 10.1178 6.39738C10.4077 5.861 10.7883 5.49243 11.4458 5.49987Z" fill="#24B8FE"/>
<path d="M64.2714 18.9402C64.2574 24.8808 63.0749 29.4056 60.7508 33.6425C60.3983 34.2798 59.882 34.5761 59.2901 34.4922C59.0049 34.4515 58.7402 34.3228 58.5339 34.1245C58.3276 33.9262 58.1904 33.6686 58.1421 33.3887C58.0699 33.0127 58.2133 32.6908 58.3911 32.3701C59.8785 29.7238 60.8647 26.833 61.3016 23.8389C62.1133 18.1967 61.1863 12.8382 58.4396 7.80042C58.2413 7.43716 58.0473 7.07603 58.1518 6.63843C58.2823 6.09461 58.6811 5.69311 59.1856 5.6092C59.841 5.50299 60.3358 5.71542 60.671 6.29854C61.4597 7.68163 62.121 9.1316 62.6469 10.631C63.7206 13.6858 64.2897 16.8244 64.2714 18.9402Z" fill="#24B8FE"/>
<path d="M15.3157 7.64753C16.3807 7.64753 16.9768 8.69481 16.4389 9.66562C15.5546 11.2312 14.8758 12.9012 14.4188 14.6354C13.0534 19.9462 13.6387 25.0445 16.1748 29.9304C16.2697 30.1131 16.3764 30.2894 16.4691 30.4721C16.8238 31.1816 16.6136 31.9389 15.9668 32.2915C15.2877 32.6612 14.5094 32.4349 14.1041 31.7254C13.2484 30.2414 12.5695 28.665 12.0807 27.0275C10.1857 20.6093 10.8231 14.4478 13.993 8.54292C14.2798 8.00866 14.6528 7.62523 15.3157 7.64753Z" fill="#24B8FE"/>
<path d="M59.8377 20.0002C59.7903 24.1224 58.8331 27.9387 56.8679 31.5012C56.4206 32.3126 55.6337 32.5867 54.9212 32.1863C54.2399 31.8039 54.0771 31.0232 54.5148 30.2245C56.2368 27.11 57.1415 23.6208 57.1468 20.0741C57.1521 16.5274 56.2577 13.0356 54.5449 9.91617C54.3294 9.53061 54.173 9.14398 54.2916 8.70001C54.355 8.45005 54.4939 8.22491 54.6898 8.05425C54.8857 7.8836 55.1295 7.77545 55.389 7.74407C56.0013 7.67185 56.4734 7.88852 56.7806 8.42597C57.6742 10.0045 58.3792 11.6797 58.8816 13.4181C59.5009 15.5594 59.8226 17.7737 59.8377 20.0002V20.0002Z" fill="#24B8FE"/>
<path d="M34.5746 11.143C33.0935 12.63 31.6131 14.1149 30.1334 15.5977C29.2861 16.4527 28.6124 17.4182 28.3612 18.6089C28.0012 20.3168 28.6846 21.6477 29.9965 22.7056C31.2491 23.7157 32.6483 23.8686 34.1391 23.2791C35.1524 22.8787 36.0007 22.2372 36.7812 21.5C37.0183 21.2759 37.2824 21.1495 37.5584 21.3938C37.8344 21.6381 37.7373 21.9313 37.5077 22.1554C35.5063 24.1175 33.4999 26.0754 31.4884 28.0291C31.4353 28.072 31.3782 28.1101 31.3181 28.1427C29.1524 26.9744 27.5872 25.2994 26.7831 22.9786C24.9344 17.6423 28.4895 11.9492 34.1596 11.16C34.2975 11.1469 34.436 11.1412 34.5746 11.143V11.143Z" fill="#222222"/>
<path d="M36.6508 28.967C38.0025 27.6233 39.364 26.2882 40.7017 24.9308C41.6827 23.9345 42.3877 22.7948 42.6259 21.3875C43.083 18.7002 40.0388 15.5775 36.7338 17.0178C35.7862 17.4309 34.9745 18.0279 34.221 18.7172C33.9461 18.9679 33.6281 19.3428 33.2573 18.9764C32.8865 18.6099 33.2638 18.2817 33.5247 18.0268C35.5652 16.0342 37.5476 13.9843 39.6561 12.0586C41.3701 13.0145 42.738 14.2965 43.6262 16.0417C46.361 21.414 43.07 27.8846 37.0636 28.9457C36.9265 28.9608 36.7887 28.9679 36.6508 28.967V28.967Z" fill="#222222"/>
<path d="M15.4537 20.0746C15.486 16.6598 16.2977 13.5042 17.933 10.561C18.278 9.94385 18.7275 9.71124 19.3742 9.78559C19.6425 9.81933 19.8936 9.93384 20.0933 10.1135C20.293 10.2932 20.4315 10.5292 20.4899 10.7893C20.588 11.1621 20.477 11.4967 20.2991 11.8185C18.8944 14.3216 18.1536 17.1335 18.1453 19.9938C18.137 22.854 18.8615 25.67 20.2517 28.1809C20.6969 28.9946 20.5277 29.7922 19.8205 30.1682C19.1134 30.5442 18.361 30.2681 17.9158 29.4715C16.3088 26.592 15.4622 23.3607 15.4537 20.0746Z" fill="#24B8FE"/>
<path d="M55.3976 19.5839C55.375 23.3248 54.5902 26.4496 52.9938 29.3727C52.5992 30.097 51.9568 30.3838 51.2787 30.1533C50.4821 29.8825 50.1512 29.0041 50.5791 28.2149C51.4401 26.6565 52.051 24.9761 52.3901 23.2334C53.1382 19.2872 52.5561 15.5403 50.6438 11.9927C50.1803 11.1302 50.4034 10.2858 51.1828 9.95445C51.496 9.82054 51.8492 9.80891 52.1708 9.92191C52.4925 10.0349 52.7585 10.2641 52.9151 10.5631C54.0839 12.6371 54.8553 14.9054 55.1907 17.2546C55.3232 18.1691 55.4138 19.0857 55.3976 19.5839Z" fill="#24B8FE"/>
<path d="M68.7406 27.5989L68.7471 19.1124L69.4305 19.0784C69.0651 17.6211 69.078 16.2042 69.8024 14.8797C70.8459 12.9678 72.5954 12.0714 74.6932 11.7219C75.1731 11.6525 75.6581 11.6234 76.143 11.6348C79.5408 11.6348 82.9342 11.6497 86.3373 11.6295C87.447 11.616 88.5494 11.8077 89.5874 12.1946C89.9959 12.3475 90.1361 12.338 90.1264 11.8409C90.0973 10.015 90.1145 8.18814 90.1145 6.36124V5.87903C92.7943 8.56521 95.3814 11.1611 97.9696 13.7559L98.1626 13.6497C98.1626 13.1186 98.1755 12.5876 98.1626 12.0565C98.1518 11.7676 98.2014 11.6316 98.5496 11.6316C101.081 11.6472 103.612 11.6472 106.143 11.6316C106.446 11.6316 106.548 11.7219 106.511 12.0076C106.502 12.1612 106.502 12.3151 106.511 12.4686C107.4 12.0692 108.274 11.7602 109.213 11.689C109.506 11.6677 109.8 11.6401 110.093 11.6401C113.873 11.6401 117.652 11.6401 121.431 11.6401C122.246 11.6401 123.06 11.6401 123.863 11.7973C124.159 11.8536 124.368 11.6231 124.674 11.6242C130.309 11.6476 135.943 11.6242 141.578 11.6486C143.874 11.6592 146.031 12.1956 147.722 13.8356C150.169 16.2169 150.693 19.124 149.733 22.2776C148.691 25.7062 145.914 27.6712 142.225 27.685C135.898 27.7094 129.569 27.685 123.241 27.7073C122.902 27.7073 122.742 27.4609 122.47 27.4067C122.428 27.9123 122.029 27.6797 121.8 27.6807C119.512 27.6998 117.223 27.6924 114.935 27.6924C114.135 27.6924 114.135 27.6924 114.058 26.9032C111.559 28.0025 109.061 27.8974 106.53 26.882V33.4046L98.6886 25.6818L98.5043 25.772C98.5043 26.267 98.4881 26.763 98.5108 27.259C98.5258 27.5724 98.4612 27.7009 98.0957 27.6977C95.5819 27.6807 93.067 27.6658 90.55 27.7051C89.9032 27.7158 90.2266 27.2463 90.0757 27.0211C87.3495 28.0472 84.9069 27.7646 82.8587 26.9032C82.8382 26.9245 82.8027 26.9457 82.8016 26.967C82.7639 27.7158 82.7649 27.7105 82.0028 27.6903C81.4488 27.6733 80.8947 27.6595 80.3406 27.6574C76.5965 27.6439 72.8524 27.6315 69.1082 27.6202C68.9821 27.6159 68.8614 27.6053 68.7406 27.5989Z" fill="#222222"/>
<path d="M115.851 19.1059C116.174 22.0162 114.114 24.7141 111.246 25.1315C108.162 25.5797 105.331 23.6944 104.76 20.7926C104.005 16.9497 107.314 14.0692 110.286 14.1425C114.411 14.2423 118.537 14.1839 122.664 14.1998C123.44 14.2009 124.195 14.4479 124.817 14.9042C125.44 15.3606 125.897 16.0021 126.122 16.7341C126.344 17.4587 126.322 18.2351 126.057 18.9459C125.793 19.6567 125.301 20.2635 124.656 20.6747C124.24 20.9392 124.346 21.038 124.6 21.3524C125.106 21.9833 125.719 22.115 126.497 22.1033C129.704 22.0534 132.911 22.0714 136.117 22.0438C136.5 22.0438 136.622 22.1245 136.604 22.5165C136.569 23.2833 136.582 24.0523 136.604 24.8203C136.61 25.1028 136.536 25.2026 136.231 25.2026C132.244 25.1927 128.255 25.1927 124.265 25.2026C123.959 25.2026 123.791 25.0327 123.61 24.8553C122.504 23.7709 121.403 22.6822 120.296 21.5988C120.179 21.483 120.089 21.3269 119.844 21.2599V24.5282C119.844 25.1963 119.844 25.1963 119.149 25.1963C118.422 25.1963 117.693 25.1867 116.965 25.1963C116.694 25.2016 116.612 25.1113 116.613 24.8436C116.623 22.7268 116.627 20.6099 116.613 18.493C116.613 18.1404 116.766 18.1149 117.044 18.116C118.743 18.1234 120.442 18.116 122.141 18.116H122.505C122.772 18.116 123.017 18.0384 123.019 17.7368C123.021 17.4351 122.797 17.3417 122.518 17.3491C122.363 17.3491 122.207 17.3491 122.05 17.3491C118.17 17.3491 114.286 17.3491 110.401 17.3491C109.065 17.3491 108.098 18.168 107.921 19.4235C107.736 20.6981 108.726 21.876 110.117 22.0311C111.335 22.166 112.581 21.1325 112.659 19.9142C112.675 19.6763 112.651 19.4373 112.646 19.1983C112.646 18.9859 112.827 18.9604 112.969 18.953C113.842 18.9043 114.717 18.906 115.589 18.9583C115.693 18.9716 115.787 19.0246 115.851 19.1059V19.1059Z" fill="#FEFEFE"/>
<path d="M84.2364 19.0985C84.12 19.8898 84.204 20.6258 84.7915 21.244C85.5785 22.0704 86.7028 22.2807 87.674 21.7751C88.1466 21.5325 88.5236 21.1415 88.7452 20.664C88.9668 20.1865 89.0204 19.6497 88.8975 19.1388C88.7616 18.6317 88.4599 18.1829 88.039 17.8618C87.618 17.5408 87.1014 17.3654 86.5691 17.3629C84.2472 17.3459 81.9242 17.347 79.6022 17.3427C78.562 17.3427 77.5217 17.3427 76.4826 17.3427C76.3608 17.3427 76.239 17.3427 76.1182 17.3427C75.8811 17.3576 75.6267 17.4192 75.6213 17.6869C75.6148 17.9864 75.8865 18.0491 76.1376 18.0724C76.5688 18.1128 77.0054 18.1096 77.4312 18.1861C78.7927 18.4283 79.9547 18.9636 80.3999 20.3954C81.037 22.4432 79.8609 24.2796 77.6436 24.7321C76.9612 24.8713 76.2691 24.8861 75.5771 24.8882C74.1757 24.8882 72.769 24.8787 71.3644 24.8957C71.0227 24.8957 70.9214 24.799 70.9332 24.4623C70.9591 23.7124 70.9656 22.9594 70.9332 22.2095C70.9138 21.7953 71.0195 21.6572 71.4647 21.6667C72.9027 21.6954 74.3418 21.6774 75.7765 21.6774C75.8973 21.6774 76.0191 21.6774 76.1398 21.6774C76.3899 21.6774 76.6087 21.585 76.613 21.3141C76.6173 21.0433 76.4136 20.9477 76.1527 20.9434C75.6163 20.9368 75.0822 20.8734 74.5595 20.7544C72.6127 20.2934 71.7342 19.1399 71.842 17.176C71.926 15.6539 73.1829 14.4813 74.9627 14.2901C75.513 14.2328 76.0661 14.204 76.6195 14.2041C79.9475 14.1963 83.2756 14.1963 86.6036 14.2041C89.3114 14.2041 91.6603 16.0936 92.1012 18.7246C92.4699 20.9232 91.7563 22.782 89.9162 24.1203C88.0987 25.4384 86.084 25.5978 84.0812 24.6259C82.0783 23.654 80.9982 22.0013 80.9604 19.7559C80.9604 19.5371 80.9227 19.312 81.009 19.0974C81.1291 18.9967 81.2824 18.9426 81.4401 18.9455C82.2307 18.9264 83.0212 18.9264 83.8117 18.9455C83.8894 18.9403 83.9673 18.9512 84.0405 18.9775C84.1137 19.0039 84.1804 19.0451 84.2364 19.0985V19.0985Z" fill="#FEFEFE"/>
<path d="M140.449 22.0545C141.037 22.0439 141.635 22.0874 142.214 22.0131C143.563 21.841 144.419 20.7842 144.322 19.4884C144.233 18.2881 143.195 17.3641 141.89 17.3641C140.087 17.3545 138.283 17.3641 136.48 17.3641C134.468 17.3641 132.458 17.3641 130.443 17.3641C130.147 17.3641 129.985 17.3789 129.982 17.7581C129.982 18.1649 130.188 18.1394 130.463 18.1384C131.503 18.132 132.543 18.1479 133.589 18.1288C133.905 18.1288 134.009 18.2053 134.001 18.5271C133.977 19.329 133.983 20.132 134.001 20.9339C134.001 21.1942 133.941 21.2866 133.658 21.2855C131.474 21.2742 129.289 21.2742 127.104 21.2855C126.863 21.2855 126.78 21.2271 126.78 20.9743C126.79 18.8238 126.79 16.6726 126.78 14.5207C126.78 14.1542 126.996 14.2116 127.22 14.2116H134.71C137.172 14.2116 139.635 14.1776 142.096 14.2212C144.36 14.2615 146.054 15.3598 147.023 17.3375C147.993 19.3152 147.8 21.293 146.414 23.0614C145.418 24.336 144.103 25.0976 142.432 25.174C140.762 25.2505 139.106 25.1836 137.442 25.208C137.204 25.208 137.155 25.1018 137.156 24.8894C137.16 23.0483 137.16 21.2041 137.156 19.3567C137.156 19.0518 137.343 18.97 137.587 18.9605C138.385 18.9251 139.182 18.9251 139.979 18.9605C140.271 18.9732 140.397 19.1209 140.39 19.4257C140.372 20.1426 140.379 20.8596 140.39 21.5765C140.377 21.7306 140.301 21.9111 140.449 22.0545Z" fill="#FEFEFE"/>
<path d="M95.9463 19.6201C95.9463 21.4119 95.9355 23.0487 95.9549 24.6854C95.9549 25.0668 95.887 25.2282 95.4504 25.207C94.6549 25.1687 93.8572 25.191 93.0595 25.1995C92.8299 25.1995 92.7135 25.1549 92.7135 24.8926C92.7228 20.644 92.7286 16.3954 92.7307 12.1468C92.7307 12.1372 92.7566 12.1276 92.8903 12.0342L100.554 19.8367C100.744 19.4809 100.693 19.2929 100.693 19.1155C100.693 17.6285 100.711 16.1415 100.686 14.6619C100.68 14.27 100.794 14.1723 101.181 14.1861C101.994 14.2158 102.809 14.202 103.624 14.1861C103.864 14.1861 103.962 14.2488 103.961 14.5047C103.961 18.7661 103.961 23.0264 103.961 27.4364L95.9463 19.6201Z" fill="#FEFEFE"/>
<path d="M140.449 22.0545C140.214 21.9663 140.313 21.7656 140.31 21.6148C140.299 20.9148 140.294 20.2149 140.31 19.516C140.317 19.2143 140.237 19.0911 139.906 19.0985C139.144 19.1187 138.38 19.1198 137.619 19.0985C137.262 19.0879 137.188 19.2281 137.188 19.5489C137.201 21.2728 137.204 22.9956 137.188 24.7184C137.188 25.0753 137.326 25.1369 137.645 25.1369C139.238 25.1369 140.831 25.1517 142.424 25.1623C142.339 25.2441 142.231 25.2261 142.129 25.2261C140.587 25.2261 139.044 25.2197 137.502 25.2325C137.188 25.2325 137.085 25.1443 137.087 24.8278C137.1 22.7106 137.1 20.5944 137.087 18.4793C137.087 18.1607 137.186 18.0704 137.502 18.0778C138.333 18.0969 139.165 18.1001 139.996 18.0778C140.361 18.0672 140.427 18.2127 140.427 18.5292C140.417 19.7029 140.351 20.8787 140.449 22.0545Z" fill="#BFBFBF"/>
<path d="M115.851 19.1059C114.957 19.1059 114.065 19.1059 113.172 19.1059C112.991 19.1059 112.789 19.038 112.639 19.2058C112.461 18.8478 112.283 18.4899 112.079 18.082C113.234 18.082 114.35 18.082 115.467 18.082C115.739 18.082 115.737 18.2679 115.784 18.4548C115.856 18.664 115.879 18.8867 115.851 19.1059Z" fill="#BFBFBF"/>
<path d="M84.2364 19.0985H81.0111C81.0003 19.0496 80.9941 18.9999 80.9928 18.9498C81.0521 18.0757 81.0531 18.0757 81.9511 18.0757H84.7937L84.2364 19.0985Z" fill="#C0C0C0"/>
<g clip-path="url(#clip0_301_96)">
<path d="M148.25 10C148.25 10.4641 148.434 10.9092 148.763 11.2374C149.091 11.5656 149.536 11.75 150 11.75C150.464 11.75 150.909 11.5656 151.237 11.2374C151.566 10.9092 151.75 10.4641 151.75 10C151.75 9.53587 151.566 9.09075 151.237 8.76256C150.909 8.43437 150.464 8.25 150 8.25C149.536 8.25 149.091 8.43437 148.763 8.76256C148.434 9.09075 148.25 9.53587 148.25 10ZM152 10C152 10.5304 151.789 11.0391 151.414 11.4142C151.039 11.7893 150.53 12 150 12C149.47 12 148.961 11.7893 148.586 11.4142C148.211 11.0391 148 10.5304 148 10C148 9.46957 148.211 8.96086 148.586 8.58579C148.961 8.21071 149.47 8 150 8C150.53 8 151.039 8.21071 151.414 8.58579C151.789 8.96086 152 9.46957 152 10ZM149.375 9.0005H150.152C150.58 9.0005 150.838 9.24375 150.838 9.6155C150.838 9.9 150.671 10.1005 150.464 10.1755L150.875 11H150.495L150.13 10.231H149.709V11H149.375V9.0005ZM149.709 9.273V9.96725H150.096C150.345 9.96725 150.489 9.8515 150.489 9.62725C150.489 9.399 150.34 9.273 150.105 9.273H149.709Z" fill="#222222"/>
</g>
<defs>
<clipPath id="clip0_301_96">
<rect width="4" height="4" fill="white" transform="translate(148 8)"/>
</clipPath>
</defs>
</svg>
