<?xml version="1.0" encoding="UTF-8"?>
<svg fill="none" viewBox="0 0 154 39" xmlns="http://www.w3.org/2000/svg">
<path d="m36.651 28.967c-0.1681 0.1466-0.3449 0.2847-0.5034 0.4397-1.5706 1.5423-3.1433 3.0803-4.702 4.6374-0.2997 0.2995-0.5649 0.4132-0.9972 0.2475-5.821-2.2199-9.3168-6.3368-10.166-12.427-1.1103-7.9321 4.5705-15.351 12.596-16.676 1.5879-0.26047 3.2067-0.28232 4.8012-0.06479 0.0173 0.23261-0.1671 0.30908-0.2802 0.41954-1.1384 1.127-2.2864 2.2411-3.4129 3.3787-0.2282 0.22868-0.5207 0.38479-0.8397 0.44823-4.5943 1.0855-7.4832 3.9012-8.5763 8.4111-1.0672 4.4005 1.0877 9.2407 5.0125 11.555 0.2825 0.1668 0.4474 0.1424 0.6554-0.0871 0.3461-0.3813 0.719-0.7435 1.078-1.1046 0.0561-0.2602 0.3008-0.3643 0.4668-0.5311 1.7721-1.7546 3.5479-3.5054 5.3273-5.2523 0.089-0.0813 0.1722-0.1686 0.249-0.2613 0.1261-0.1646 0.277-0.3473 0.0959-0.5459-0.1811-0.1987-0.3805-0.0839-0.553 0.0467-0.2156 0.1668-0.4366 0.3346-0.6468 0.5194-0.6226 0.5466-1.3353 0.9844-2.1074 1.2948-2.1678 0.9177-4.2892-0.1572-5.3575-1.8195-1.1157-1.7377-0.7287-3.3883 0.3234-4.9847 0.3486-0.5103 0.7523-0.9818 1.2041-1.4063 1.2213-1.1864 2.4297-2.3855 3.6403-3.5826 0.1775-0.1868 0.3811-0.3478 0.6047-0.478 1.7021-1.6782 3.415-3.3447 5.0966-5.042 0.345-0.34839 0.6242-0.40043 1.078-0.22306 5.3715 2.1158 8.7401 5.9289 9.7879 11.535 1.5868 8.4876-4.4099 16.293-12.737 17.51-1.3844 0.221-2.7941 0.2421-4.1847 0.0627-0.056-0.1859 0.1014-0.2496 0.1898-0.3367 1.2468-1.2342 2.4955-2.4667 3.7459-3.6973 0.1696-0.1698 0.3833-0.2903 0.6177-0.3484 4.4735-1.1779 7.7182-4.6809 8.2356-9.2014 0.5196-4.4749-1.2256-8.0192-5.0222-10.568-0.2232-0.1498-0.373-0.1668-0.567 0.0478-0.3676 0.4057-0.7643 0.787-1.1491 1.179-0.0798 0.3866-0.4054 0.5927-0.6716 0.82-1.3259 1.1301-2.4998 2.411-3.7546 3.6113-0.5389 0.5119-1.0693 1.0239-1.5738 1.5624-0.2005 0.2124-0.5454 0.495-0.263 0.7796 0.2824 0.2847 0.5702-0.0542 0.7847-0.2496 0.705-0.6373 1.4575-1.2055 2.3328-1.606 2.6949-1.2289 5.0664 0.2656 5.987 2.4047 0.4592 1.0622 0.3848 2.1711-0.0701 3.2385-0.4004 0.9301-0.9791 1.7755-1.7043 2.4897-1.1599 1.1482-2.3273 2.2921-3.4893 3.4371-0.1644 0.1752-0.3617 0.3174-0.5811 0.4185z" fill="#24B8FE"/>
<path d="m11.446 5.4999c1.0338 0.01062 1.6385 1.0462 1.1286 1.9841-0.8171 1.5061-1.5436 3.0483-2.0535 4.6819-2.1861 7.0102-1.5314 13.754 1.9641 20.232 0.4818 0.8912 0.2738 1.743-0.525 2.0755-0.6931 0.2889-1.3679 0.0329-1.7819-0.7-1.2616-2.2172-2.2007-4.5981-2.7897-7.0728-1.6708-7.1016-0.76104-13.869 2.7294-20.303 0.2899-0.53638 0.6705-0.90495 1.328-0.89751z" fill="#24B8FE"/>
<path d="m64.271 18.94c-0.014 5.9406-1.1965 10.465-3.5206 14.702-0.3525 0.6373-0.8688 0.9336-1.4607 0.8497-0.2852-0.0407-0.5499-0.1694-0.7562-0.3677s-0.3435-0.4559-0.3918-0.7358c-0.0722-0.376 0.0712-0.6979 0.249-1.0186 1.4874-2.6463 2.4736-5.5371 2.9105-8.5312 0.8117-5.6422-0.1153-11.001-2.862-16.038-0.1983-0.36326-0.3923-0.72439-0.2878-1.162 0.1305-0.54382 0.5293-0.94532 1.0338-1.0292 0.6554-0.10621 1.1502 0.10622 1.4854 0.68934 0.7887 1.3831 1.45 2.8331 1.9759 4.3325 1.0737 3.0548 1.6428 6.1934 1.6245 8.3092z" fill="#24B8FE"/>
<path d="m15.316 7.6475c1.065 0 1.6611 1.0473 1.1232 2.0181-0.8843 1.5656-1.5631 3.2356-2.0201 4.9698-1.3654 5.3108-0.7801 10.409 1.756 15.295 0.0949 0.1827 0.2016 0.359 0.2943 0.5417 0.3547 0.7095 0.1445 1.4668-0.5023 1.8194-0.6791 0.3697-1.4574 0.1434-1.8627-0.5661-0.8557-1.484-1.5346-3.0604-2.0234-4.6979-1.895-6.4182-1.2576-12.58 1.9123-18.485 0.2868-0.53426 0.6598-0.91769 1.3227-0.89539z" fill="#24B8FE"/>
<path d="m59.838 20c-0.0474 4.1222-1.0046 7.9385-2.9698 11.501-0.4473 0.8114-1.2342 1.0855-1.9467 0.6851-0.6813-0.3824-0.8441-1.1631-0.4064-1.9618 1.722-3.1145 2.6267-6.6037 2.632-10.15s-0.8891-7.0385-2.6019-10.158c-0.2155-0.38556-0.3719-0.77219-0.2533-1.2162 0.0634-0.24996 0.2023-0.4751 0.3982-0.64576 0.1959-0.17065 0.4397-0.2788 0.6992-0.31018 0.6123-0.07222 1.0844 0.14445 1.3916 0.6819 0.8936 1.5785 1.5986 3.2537 2.101 4.9921 0.6193 2.1413 0.941 4.3556 0.9561 6.5821z" fill="#24B8FE"/>
<path d="m34.575 11.143c-1.4811 1.487-2.9615 2.9719-4.4412 4.4547-0.8473 0.855-1.521 1.8205-1.7722 3.0112-0.36 1.7079 0.3234 3.0388 1.6353 4.0967 1.2526 1.0101 2.6518 1.163 4.1426 0.5735 1.0133-0.4004 1.8616-1.0419 2.6421-1.7791 0.2371-0.2241 0.5012-0.3505 0.7772-0.1062s0.1789 0.5375-0.0507 0.7616c-2.0014 1.9621-4.0078 3.92-6.0193 5.8737-0.0531 0.0429-0.1102 0.081-0.1703 0.1136-2.1657-1.1683-3.7309-2.8433-4.535-5.1641-1.8487-5.3363 1.7064-11.029 7.3765-11.819 0.1379-0.0131 0.2764-0.0188 0.415-0.017z" fill="#222"/>
<path d="m36.651 28.967c1.3517-1.3437 2.7132-2.6788 4.0509-4.0362 0.981-0.9963 1.686-2.136 1.9242-3.5433 0.4571-2.6873-2.5871-5.81-5.8921-4.3697-0.9476 0.4131-1.7593 1.0101-2.5128 1.6994-0.2749 0.2507-0.5929 0.6256-0.9637 0.2592-0.3708-0.3665 0.0065-0.6947 0.2674-0.9496 2.0405-1.9926 4.0229-4.0425 6.1314-5.9682 1.714 0.9559 3.0819 2.2379 3.9701 3.9831 2.7348 5.3723-0.5562 11.843-6.5626 12.904-0.1371 0.0151-0.2749 0.0222-0.4128 0.0213z" fill="#222"/>
<path d="m15.454 20.075c0.0323-3.4148 0.844-6.5704 2.4793-9.5136 0.345-0.61715 0.7945-0.84976 1.4412-0.77541 0.2683 0.03374 0.5194 0.14825 0.7191 0.32791 0.1997 0.1797 0.3382 0.4157 0.3966 0.6758 0.0981 0.3728-0.0129 0.7074-0.1908 1.0292-1.4047 2.5031-2.1455 5.315-2.1538 8.1753-0.0083 2.8602 0.7162 5.6762 2.1064 8.1871 0.4452 0.8137 0.276 1.6113-0.4312 1.9873-0.7071 0.376-1.4595 0.0999-1.9047-0.6967-1.607-2.8795-2.4536-6.1108-2.4621-9.3969z" fill="#24B8FE"/>
<path d="m55.398 19.584c-0.0226 3.7409-0.8074 6.8657-2.4038 9.7888-0.3946 0.7243-1.037 1.0111-1.7151 0.7806-0.7966-0.2708-1.1275-1.1492-0.6996-1.9384 0.861-1.5584 1.4719-3.2388 1.811-4.9815 0.7481-3.9462 0.166-7.6931-1.7463-11.241-0.4635-0.8625-0.2404-1.7069 0.539-2.0382 0.3132-0.13391 0.6664-0.14554 0.988-0.03254 0.3217 0.11299 0.5877 0.34219 0.7443 0.64119 1.1688 2.074 1.9402 4.3423 2.2756 6.6915 0.1325 0.9145 0.2231 1.8311 0.2069 2.3293z" fill="#24B8FE"/>
<path d="m68.741 27.599 0.0065-8.4865 0.6834-0.034c-0.3654-1.4573-0.3525-2.8742 0.3719-4.1987 1.0435-1.9119 2.793-2.8083 4.8908-3.1578 0.4799-0.0694 0.9649-0.0985 1.4498-0.0871 3.3978 0 6.7912 0.0149 10.194-0.0053 1.1097-0.0135 2.2121 0.1782 3.2501 0.5651 0.4085 0.1529 0.5487 0.1434 0.539-0.3537-0.0291-1.8259-0.0119-3.6528-0.0119-5.4797v-0.48221c2.6798 2.6862 5.2669 5.2821 7.8551 7.8769l0.193-0.1062c0-0.5311 0.0129-1.0621 0-1.5932-0.0108-0.2889 0.0388-0.4249 0.387-0.4249 2.5314 0.0156 5.0624 0.0156 7.5934 0 0.303 0 0.405 0.0903 0.368 0.376-9e-3 0.1536-9e-3 0.3075 0 0.461 0.889-0.3994 1.763-0.7084 2.702-0.7796 0.293-0.0213 0.587-0.0489 0.88-0.0489h11.338c0.815 0 1.629 0 2.432 0.1572 0.296 0.0563 0.505-0.1742 0.811-0.1731 5.635 0.0234 11.269 0 16.904 0.0244 2.296 0.0106 4.453 0.547 6.144 2.187 2.447 2.3813 2.971 5.2884 2.011 8.442-1.042 3.4286-3.819 5.3936-7.508 5.4074-6.327 0.0244-12.656 0-18.984 0.0223-0.339 0-0.499-0.2464-0.771-0.3006-0.042 0.5056-0.441 0.273-0.67 0.274-2.288 0.0191-4.577 0.0117-6.865 0.0117-0.8 0-0.8 0-0.877-0.7892-2.499 1.0993-4.997 0.9942-7.528-0.0212v6.5226l-7.8414-7.7228-0.1843 0.0902c0 0.495-0.0162 0.991 0.0065 1.487 0.015 0.3134-0.0496 0.4419-0.4151 0.4387-2.5138-0.017-5.0287-0.0319-7.5457 0.0074-0.6468 0.0107-0.3234-0.4588-0.4743-0.684-2.7262 1.0261-5.1688 0.7435-7.217-0.1179-0.0205 0.0213-0.056 0.0425-0.0571 0.0638-0.0377 0.7488-0.0367 0.7435-0.7988 0.7233-0.554-0.017-1.1081-0.0308-1.6622-0.0329-3.7441-0.0135-7.4882-0.0259-11.232-0.0372-0.1261-0.0043-0.2468-0.0149-0.3676-0.0213z" fill="#222"/>
<path d="m115.85 19.106c0.323 2.9103-1.737 5.6082-4.605 6.0256-3.084 0.4482-5.915-1.4371-6.486-4.3389-0.755-3.8429 2.554-6.7234 5.526-6.6501 4.125 0.0998 8.251 0.0414 12.378 0.0573 0.776 0.0011 1.531 0.2481 2.153 0.7044 0.623 0.4564 1.08 1.0979 1.305 1.8299 0.222 0.7246 0.2 1.501-0.065 2.2118-0.264 0.7108-0.756 1.3176-1.401 1.7288-0.416 0.2645-0.31 0.3633-0.056 0.6777 0.506 0.6309 1.119 0.7626 1.897 0.7509 3.207-0.0499 6.414-0.0319 9.62-0.0595 0.383 0 0.505 0.0807 0.487 0.4727-0.035 0.7668-0.022 1.5358 0 2.3038 6e-3 0.2825-0.068 0.3823-0.373 0.3823-3.987-0.0099-7.976-0.0099-11.966 0-0.306 0-0.474-0.1699-0.655-0.3473-1.106-1.0844-2.207-2.1731-3.314-3.2565-0.117-0.1158-0.207-0.2719-0.452-0.3389v3.2683c0 0.6681 0 0.6681-0.695 0.6681-0.727 0-1.456-0.0096-2.184 0-0.271 0.0053-0.353-0.085-0.352-0.3527 0.01-2.1168 0.014-4.2337 0-6.3506 0-0.3526 0.153-0.3781 0.431-0.377 1.699 0.0074 3.398 0 5.097 0h0.364c0.267 0 0.512-0.0776 0.514-0.3792 2e-3 -0.3017-0.222-0.3951-0.501-0.3877h-0.468-11.649c-1.336 0-2.303 0.8189-2.48 2.0744-0.185 1.2746 0.805 2.4525 2.196 2.6076 1.218 0.1349 2.464-0.8986 2.542-2.1169 0.016-0.2379-8e-3 -0.4769-0.013-0.7159 0-0.2124 0.181-0.2379 0.323-0.2453 0.873-0.0487 1.748-0.047 2.62 0.0053 0.104 0.0133 0.198 0.0663 0.262 0.1476z" fill="#FEFEFE"/>
<path d="m84.236 19.098c-0.1164 0.7913-0.0324 1.5273 0.5551 2.1455 0.787 0.8264 1.9113 1.0367 2.8825 0.5311 0.4726-0.2426 0.8496-0.6336 1.0712-1.1111s0.2752-1.0143 0.1523-1.5252c-0.1359-0.5071-0.4376-0.9559-0.8585-1.277-0.421-0.321-0.9376-0.4964-1.4699-0.4989-2.3219-0.017-4.6449-0.0159-6.9669-0.0202h-3.1196-0.3644c-0.2371 0.0149-0.4915 0.0765-0.4969 0.3442-0.0065 0.2995 0.2652 0.3622 0.5163 0.3855 0.4312 0.0404 0.8678 0.0372 1.2936 0.1137 1.3615 0.2422 2.5235 0.7775 2.9687 2.2093 0.6371 2.0478-0.539 3.8842-2.7563 4.3367-0.6824 0.1392-1.3745 0.154-2.0665 0.1561-1.4014 0-2.8081-0.0095-4.2127 0.0075-0.3417 0-0.443-0.0967-0.4312-0.4334 0.0259-0.7499 0.0324-1.5029 0-2.2528-0.0194-0.4142 0.0863-0.5523 0.5315-0.5428 1.438 0.0287 2.8771 0.0107 4.3118 0.0107h0.3633c0.2501 0 0.4689-0.0924 0.4732-0.3633 0.0043-0.2708-0.1994-0.3664-0.4603-0.3707-0.5364-0.0066-1.0705-0.07-1.5932-0.189-1.9468-0.461-2.8253-1.6145-2.7175-3.5784 0.084-1.5221 1.3409-2.6947 3.1207-2.8859 0.5503-0.0573 1.1034-0.0861 1.6568-0.086 3.328-0.0078 6.6561-0.0078 9.9841 0 2.7078 0 5.0567 1.8895 5.4976 4.5205 0.3687 2.1986-0.3449 4.0574-2.185 5.3957-1.8175 1.3181-3.8322 1.4775-5.835 0.5056-2.0029-0.9719-3.083-2.6246-3.1208-4.87 0-0.2188-0.0377-0.4439 0.0486-0.6585 0.1201-0.1007 0.2734-0.1548 0.4311-0.1519 0.7906-0.0191 1.5811-0.0191 2.3716 0 0.0777-0.0052 0.1556 0.0057 0.2288 0.032 0.0732 0.0264 0.1399 0.0676 0.1959 0.121z" fill="#FEFEFE"/>
<path d="m140.45 22.054c0.588-0.0106 1.186 0.0329 1.765-0.0414 1.349-0.1721 2.205-1.2289 2.108-2.5247-0.089-1.2003-1.127-2.1243-2.432-2.1243-1.803-0.0096-3.607 0-5.41 0h-6.037c-0.296 0-0.458 0.0148-0.461 0.394 0 0.4068 0.206 0.3813 0.481 0.3803 1.04-0.0064 2.08 0.0095 3.126-0.0096 0.316 0 0.42 0.0765 0.412 0.3983-0.024 0.8019-0.018 1.6049 0 2.4068 0 0.2603-0.06 0.3527-0.343 0.3516-2.184-0.0113-4.369-0.0113-6.554 0-0.241 0-0.324-0.0584-0.324-0.3112 0.01-2.1505 0.01-4.3017 0-6.4536 0-0.3665 0.216-0.3091 0.44-0.3091h7.49c2.462 0 4.925-0.034 7.386 0.0096 2.264 0.0403 3.958 1.1386 4.927 3.1163 0.97 1.9777 0.777 3.9555-0.609 5.7239-0.996 1.2746-2.311 2.0362-3.982 2.1126-1.67 0.0765-3.326 0.0096-4.99 0.034-0.238 0-0.287-0.1062-0.286-0.3186 4e-3 -1.8411 4e-3 -3.6853 0-5.5327 0-0.3049 0.187-0.3867 0.431-0.3962 0.798-0.0354 1.595-0.0354 2.392 0 0.292 0.0127 0.418 0.1604 0.411 0.4652-0.018 0.7169-0.011 1.4339 0 2.1508-0.013 0.1541-0.089 0.3346 0.059 0.478z" fill="#FEFEFE"/>
<path d="m95.946 19.62c0 1.7918-0.0108 3.4286 0.0086 5.0653 0 0.3814-0.0679 0.5428-0.5045 0.5216-0.7955-0.0383-1.5932-0.016-2.3909-0.0075-0.2296 0-0.346-0.0446-0.346-0.3069 0.0093-4.2486 0.0151-8.4972 0.0172-12.746 0-0.0096 0.0259-0.0192 0.1596-0.1126l7.6637 7.8025c0.19-0.3558 0.139-0.5438 0.139-0.7212 0-1.487 0.018-2.974-7e-3 -4.4536-6e-3 -0.3919 0.108-0.4896 0.495-0.4758 0.813 0.0297 1.628 0.0159 2.443 0 0.24 0 0.338 0.0627 0.337 0.3186v12.932l-8.0147-7.8163z" fill="#FEFEFE"/>
<path d="m140.45 22.054c-0.235-0.0882-0.136-0.2889-0.139-0.4397-0.011-0.7-0.016-1.3999 0-2.0988 7e-3 -0.3017-0.073-0.4249-0.404-0.4175-0.762 0.0202-1.526 0.0213-2.287 0-0.357-0.0106-0.431 0.1296-0.431 0.4504 0.013 1.7239 0.016 3.4467 0 5.1695 0 0.3569 0.138 0.4185 0.457 0.4185 1.593 0 3.186 0.0148 4.779 0.0254-0.085 0.0818-0.193 0.0638-0.295 0.0638-1.542 0-3.085-0.0064-4.627 0.0064-0.314 0-0.417-0.0882-0.415-0.4047 0.013-2.1172 0.013-4.2334 0-6.3485 0-0.3186 0.099-0.4089 0.415-0.4015 0.831 0.0191 1.663 0.0223 2.494 0 0.365-0.0106 0.431 0.1349 0.431 0.4514-0.01 1.1737-0.076 2.3495 0.022 3.5253z" fill="#BFBFBF"/>
<path d="m115.85 19.106h-2.679c-0.181 0-0.383-0.0679-0.533 0.0999-0.178-0.358-0.356-0.7159-0.56-1.1238h3.388c0.272 0 0.27 0.1859 0.317 0.3728 0.072 0.2092 0.095 0.4319 0.067 0.6511z" fill="#BFBFBF"/>
<path d="m84.236 19.098h-3.2253c-0.0108-0.0489-0.017-0.0986-0.0183-0.1487 0.0593-0.8741 0.0603-0.8741 0.9583-0.8741h2.8426l-0.5573 1.0228z" fill="#C0C0C0"/>
<g clip-path="url(#a)">
<path d="m148.25 10c0 0.4641 0.184 0.9092 0.513 1.2374 0.328 0.3282 0.773 0.5126 1.237 0.5126s0.909-0.1844 1.237-0.5126c0.329-0.3282 0.513-0.7733 0.513-1.2374 0-0.46413-0.184-0.90925-0.513-1.2374-0.328-0.32819-0.773-0.51256-1.237-0.51256s-0.909 0.18437-1.237 0.51256c-0.329 0.32819-0.513 0.77331-0.513 1.2374zm3.75 0c0 0.5304-0.211 1.0391-0.586 1.4142s-0.884 0.5858-1.414 0.5858-1.039-0.2107-1.414-0.5858-0.586-0.8838-0.586-1.4142c0-0.53043 0.211-1.0391 0.586-1.4142 0.375-0.37508 0.884-0.58579 1.414-0.58579s1.039 0.21071 1.414 0.58579c0.375 0.37507 0.586 0.88378 0.586 1.4142zm-2.625-0.9995h0.777c0.428 0 0.686 0.24325 0.686 0.615 0 0.2845-0.167 0.485-0.374 0.56l0.411 0.8245h-0.38l-0.365-0.769h-0.421v0.769h-0.334v-1.9995zm0.334 0.2725v0.69425h0.387c0.249 0 0.393-0.11575 0.393-0.34 0-0.22825-0.149-0.35425-0.384-0.35425h-0.396z" fill="#222"/>
</g>
<defs>
<clipPath id="a">
<rect transform="translate(148 8)" width="4" height="4" fill="#fff"/>
</clipPath>
</defs>
</svg>
