<?xml version="1.0" encoding="UTF-8"?>
<svg fill="none" viewBox="0 0 199 155" xmlns="http://www.w3.org/2000/svg">
<path d="m6.2188 133.08c0-6.721 0.00586-13.443 0.01759-20.164l1.5905-0.081c-0.85178-3.462-0.81912-6.829 0.86686-9.976 2.4322-4.5424 6.5102-6.6724 11.4-7.5001 1.1192-0.1683 2.2506-0.2409 3.382-0.2171 7.9198 0 15.83 0.0379 23.759 0 2.5873-0.0319 5.1577 0.4235 7.578 1.3426 0.9498 0.3634 1.2765 0.3407 1.2564-0.8378-0.0654-4.3407-0.0252-8.6814-0.0252-13.022v-1.1457l18.31 18.71 0.4497-0.2522c0-1.2619 0.0327-2.5237 0-3.7981-0.0226-0.6865 0.0905-1.0095 0.9046-0.9943 5.8996 0.0353 11.799 0.0353 17.699 0 0.7035 0 0.9447 0.2145 0.8593 0.8933-0.0208 0.3648-0.0208 0.7305 0 1.0953 2.0704-0.9489 4.1056-1.6833 6.2968-1.8499 0.683-0.0529 1.367-0.116 2.053-0.1186h26.427c1.898 0 3.795 0 5.669 0.3735 0.688 0.1338 1.173-0.4138 1.889-0.4088 13.134 0.053 26.267 0 39.398 0.058 5.352 0.0228 10.383 1.2972 14.322 5.1938 5.707 5.658 6.925 12.565 4.689 20.058-2.43 8.146-8.9 12.815-17.5 12.85-14.75 0.058-29.499 0-44.248 0.051-0.791 0-1.163-0.586-1.799-0.714-0.1 1.201-1.028 0.648-1.56 0.653-5.335 0.043-10.669 0.026-16.003 0.026-1.864 0-1.864 0-2.043-1.873-5.824 2.609-11.648 2.36-17.551-0.053v15.498l-18.274-18.352-0.4297 0.214c0 1.179-0.0402 2.357 0.0126 3.533 0.0352 0.757-0.1131 1.05-0.9674 1.045-5.8594-0.043-11.719-0.078-17.588 0.015-1.5075 0.026-0.7537-1.087-1.1055-1.622-6.3545 2.435-12.061 1.766-16.835-0.281-0.0452 0.051-0.1307 0.099-0.1332 0.152-0.0854 1.766-0.0854 1.766-1.8618 1.716-1.2915-0.038-2.583-0.073-3.8745-0.078-8.7272-0.034-17.454-0.063-26.179-0.089-0.28644-5e-3 -0.57037-0.032-0.85178-0.05z" fill="#222"/>
<path d="m103.16 68.825c-0.392 0.3483-0.804 0.6764-1.173 1.0448-3.6609 3.6644-7.3293 7.3186-10.96 11.018-0.701 0.7117-1.3191 0.9817-2.3266 0.588-13.568-5.2744-21.714-15.056-23.697-29.527-2.5805-18.849 10.658-36.477 29.358-39.621 3.7021-0.6189 7.4758-0.6708 11.194-0.1539 0.038 0.5527-0.392 0.7344-0.653 0.9968-2.641 2.6776-5.3246 5.3249-7.9478 8.0278-0.5331 0.543-1.2156 0.9138-1.9598 1.065-10.709 2.5791-17.44 9.2694-19.99 19.985-2.4875 10.456 2.5353 21.956 11.686 27.455 0.6558 0.3962 1.0403 0.3381 1.5277-0.207 0.8066-0.906 1.6759-1.7665 2.5126-2.6246 0.1307-0.6183 0.6986-0.8656 1.0855-1.2618 4.1308-4.1691 8.2701-8.3289 12.417-12.48 0.208-0.1926 0.402-0.4001 0.581-0.6208 0.296-0.3912 0.648-0.8252 0.223-1.2972-0.424-0.4719-0.887-0.1993-1.286 0.1111-0.503 0.3962-1.02 0.7949-1.508 1.234-1.451 1.2979-3.1109 2.3382-4.9094 3.0764-5.0554 2.1804-10-0.3735-12.488-4.323-2.6006-4.1287-1.6986-8.0505 0.7538-11.844 0.8248-1.2139 1.7776-2.335 2.8418-3.3438 2.8468-2.8189 5.6659-5.6681 8.4876-8.5123 0.4133-0.4433 0.8871-0.8257 1.4071-1.1356 3.9678-3.9874 7.9628-7.947 11.88-11.98 0.806-0.8277 1.457-0.9514 2.512-0.5299 12.518 5.0271 20.373 14.087 22.815 27.407 3.699 20.166-10.279 38.713-29.689 41.602-3.227 0.5249-6.5128 0.5751-9.7541 0.1489-0.1306-0.4417 0.2337-0.5931 0.4423-0.8 2.9046-2.9325 5.8268-5.8524 8.7318-8.7849 0.394-0.4043 0.892-0.6908 1.439-0.8277 10.428-2.7988 17.988-11.122 19.194-21.862 1.194-10.63-2.887-19.059-11.721-25.12-0.523-0.3558-0.87-0.3962-1.322 0.1136-0.859 0.964-1.784 1.87-2.678 2.8013-0.186 0.9186-0.948 1.4082-1.566 1.9482-3.09 2.6852-5.829 5.7287-8.7511 8.5805-1.2563 1.2164-2.4926 2.4328-3.671 3.7123-0.4648 0.5047-1.2689 1.176-0.6131 1.8523 0.6558 0.6764 1.3292-0.1287 1.8318-0.593 1.6432-1.5142 3.3944-2.8644 5.4374-3.8158 6.281-2.9199 11.809 0.6309 13.955 5.7136 1.068 2.5236 0.897 5.1583-0.163 7.6946-0.936 2.2089-2.284 4.217-3.973 5.9154-2.716 2.7407-5.447 5.4587-8.151 8.1792-0.386 0.416-0.848 0.7536-1.362 0.9943z" fill="#24B8FE"/>
<path d="m44.416 13.068c2.4121 0.0253 3.8217 2.4858 2.6332 4.7142-1.9045 3.5786-3.598 7.2429-4.7865 11.124-5.0956 16.656-3.5705 32.68 4.5755 48.071 1.1256 2.1173 0.6382 4.1413-1.2237 4.9312-1.6156 0.6864-3.186 0.0782-4.1508-1.6631-2.9406-5.2684-5.1303-10.925-6.5052-16.805-3.8946-16.873-1.7739-32.953 6.3619-48.24 0.6785-1.2744 1.5654-2.1501 3.0956-2.1325z" fill="#24B8FE"/>
<path d="m167.55 45.002c-0.035 14.115-2.791 24.866-8.208 34.932-0.822 1.5142-2.01 2.2183-3.402 2.019-0.665-0.0977-1.281-0.4048-1.761-0.8769-0.479-0.4721-0.797-1.085-0.908-1.7503-0.171-0.8933 0.164-1.658 0.581-2.4201 3.465-6.288 5.764-13.156 6.784-20.27 1.889-13.406-0.269-26.138-6.671-38.107-0.463-0.8631-0.915-1.7211-0.671-2.7609 0.304-1.2921 1.234-2.246 2.407-2.4454 1.53-0.2523 2.683 0.2524 3.465 1.6379 1.838 3.2857 3.379 6.7309 4.603 10.294 2.495 7.2631 3.824 14.72 3.781 19.748z" fill="#24B8FE"/>
<path d="m53.438 18.17c2.4825 0 3.8695 2.4883 2.6157 4.7949-2.0592 3.7208-3.6413 7.6884-4.7087 11.808-3.1826 12.618-1.8174 24.732 4.0956 36.341 0.2211 0.434 0.4699 0.853 0.6834 1.287 0.8292 1.6858 0.3367 3.4852-1.1683 4.323-1.583 0.8783-3.3971 0.3407-4.3444-1.3451-1.9924-3.527-3.5748-7.2723-4.7162-11.162-4.4172-15.233-2.9305-29.864 4.4599-43.894 0.6659-1.2947 1.5353-2.2057 3.083-2.1527z" fill="#24B8FE"/>
<path d="m157.21 47.52c-0.109 9.7943-2.34 18.862-6.92 27.326-1.043 1.928-2.877 2.5791-4.538 1.6201-1.588-0.9085-1.97-2.7634-0.947-4.6611 4.014-7.3999 6.123-15.69 6.136-24.117s-2.072-16.723-6.063-24.135c-0.503-0.9161-0.867-1.8347-0.593-2.8896 0.148-0.5943 0.471-1.1295 0.929-1.535 0.457-0.4055 1.026-0.6622 1.631-0.7363 1.425-0.1716 2.528 0.3432 3.241 1.6202 2.085 3.75 3.729 7.7303 4.9 11.861 1.443 5.0904 2.191 10.354 2.224 15.647z" fill="#24B8FE"/>
<path d="m98.327 26.476c-3.449 3.5332-6.8988 7.0612-10.35 10.584-1.9749 2.0316-3.5529 4.3281-4.1333 7.1546-0.8392 4.0581 0.7538 7.2202 3.8117 9.7338 2.9221 2.4 6.181 2.7634 9.6585 1.3627 2.3619-0.9514 4.339-2.4757 6.158-4.2271 0.553-0.5325 1.169-0.8328 1.812-0.2524 0.643 0.5805 0.417 1.277-0.118 1.8095-4.669 4.662-9.3453 9.314-14.031 13.956-0.1242 0.1014-0.2571 0.1918-0.3969 0.2701-5.0479-2.7761-8.6987-6.7559-10.573-12.27-4.3091-12.679 3.9775-26.206 17.196-28.081 0.3207-0.0312 0.6428-0.0447 0.9649-0.0404z" fill="#222"/>
<path d="m103.16 68.825c3.151-3.1924 6.325-6.3647 9.443-9.5899 2.284-2.3672 3.927-5.0751 4.485-8.4189 1.063-6.3849-6.03-13.804-13.737-10.382-2.208 0.9817-4.0977 2.4-5.8566 4.0378-0.6407 0.5956-1.3819 1.4865-2.2463 0.6158-0.8643-0.8707 0.0151-1.6505 0.6232-2.2562 4.7567-4.7343 9.3797-9.605 14.295-14.18 3.995 2.2713 7.181 5.3174 9.251 9.4637 6.377 12.765-1.294 28.139-15.294 30.66-0.32 0.0359-0.641 0.0528-0.963 0.0505z" fill="#222"/>
<path d="m53.77 47.697c0.0729-8.1136 1.9649-15.611 5.779-22.604 0.8016-1.4663 1.8518-2.019 3.3594-1.8423 0.6252 0.0802 1.2106 0.3523 1.676 0.7791 0.4655 0.4269 0.7884 0.9877 0.9246 1.6058 0.2261 0.8858-0.0302 1.6807-0.4473 2.4454-3.2756 5.9468-5.003 12.628-5.0219 19.424-0.0189 6.7963 1.6713 13.487 4.9139 19.452 1.0377 1.9331 0.6432 3.8284-1.0201 4.7218-1.6634 0.8933-3.4021 0.2372-4.4398-1.6556-3.7406-6.8429-5.7088-14.52-5.7238-22.327z" fill="#24B8FE"/>
<path d="m146.86 46.531c-0.053 8.8883-1.879 16.313-5.601 23.258-0.919 1.7211-2.419 2.4025-4 1.8549-1.857-0.6435-2.628-2.7306-1.628-4.6057 2.006-3.7033 3.43-7.6958 4.221-11.836 1.741-9.378 0.383-18.281-4.073-26.708-1.078-2.0492-0.557-4.0555 1.257-4.8429 0.73-0.3183 1.554-0.346 2.304-0.0776 0.75 0.2685 1.37 0.8131 1.736 1.5236 2.723 4.9285 4.521 10.318 5.304 15.899 0.309 2.1728 0.52 4.3508 0.48 5.5344z" fill="#24B8FE"/>
<path d="m116.03 112.9c0.754 6.915-4.045 13.325-10.734 14.317-7.1885 1.065-13.784-3.415-15.118-10.307-1.7588-9.133 5.9575-15.975 12.884-15.803 9.611 0.237 19.232 0.101 28.848 0.136 1.807 5e-3 3.564 0.594 5.013 1.678 1.448 1.085 2.511 2.608 3.032 4.346 0.519 1.721 0.467 3.566-0.15 5.254-0.616 1.689-1.763 3.13-3.267 4.106-0.97 0.629-0.719 0.866-0.131 1.61 1.184 1.499 2.609 1.812 4.425 1.785 7.473-0.117 14.948-0.076 22.423-0.139 0.892 0 1.176 0.192 1.136 1.12-0.083 1.822-0.051 3.65 0 5.474 0 0.671-0.159 0.911-0.87 0.909-9.295-0.022-18.592-0.022-27.89 0-0.714 0-1.108-0.402-1.53-0.826-2.57-2.575-5.141-5.154-7.714-7.735-0.276-0.275-0.485-0.646-1.058-0.807v7.765c0 1.587 0 1.587-1.615 1.587-1.699 0-3.395-0.02-5.093 0.013-0.634 0-0.825-0.204-0.822-0.84 0.023-5.027 0.035-10.057 0-15.087 0-0.84 0.359-0.901 1.005-0.898 3.96 0.02 7.92 0 11.88 0h0.849c0.623 0 1.196-0.184 1.201-0.899 5e-3 -0.714-0.518-0.941-1.168-0.923h-1.091-27.156c-3.113 0-5.3648 1.943-5.7794 4.926-0.4296 3.028 1.877 5.827 5.1204 6.196 2.837 0.32 5.742-2.135 5.925-5.03 0.035-0.563-0.02-1.133-0.033-1.701 0-0.505 0.425-0.565 0.754-0.583 2.034-0.114 4.073-0.11 6.106 0.013 0.12 0.013 0.237 0.05 0.343 0.109s0.2 0.139 0.275 0.234z" fill="#FEFEFE"/>
<path d="m42.338 112.88c-0.2713 1.88-0.0753 3.632 1.2966 5.098 1.8317 1.963 4.4523 2.466 6.7162 1.262 1.1019-0.576 1.9808-1.505 2.4974-2.64s0.6414-2.41 0.3544-3.624c-0.3166-1.205-1.02-2.271-2.0012-3.034-0.9811-0.763-2.1853-1.18-3.426-1.186-5.4122-0.04-10.824-0.035-16.239-0.047h-7.2716c-0.2814 0-0.5653-0.013-0.8467 0-0.5553 0.035-1.1458 0.181-1.1609 0.817-0.015 0.712 0.6181 0.863 1.2036 0.916 1.005 0.096 2.0252 0.091 3.0151 0.27 3.1735 0.578 5.8796 1.84 6.9173 5.25 1.4824 4.865-1.2563 9.231-6.4273 10.304-1.5905 0.33-3.2036 0.366-4.8167 0.371-3.2664 0-6.5454-0.021-9.8168 0.017-0.7991 0-1.0327-0.229-1.0051-1.029 0.0578-1.782 0.0754-3.571 0-5.351-0.0427-0.984 0.2035-1.314 1.2412-1.292 3.3519 0.068 6.7062 0.026 10.05 0.026h0.8493c0.5829-0.013 1.093-0.22 1.1005-0.864 0.0076-0.643-0.4648-0.868-1.0703-0.88-1.2514-0.013-2.4975-0.164-3.7162-0.449-4.5227-1.093-6.5856-3.834-6.3318-8.503 0.1985-3.621 3.1332-6.407 7.274-6.864 1.2838-0.135 2.5737-0.203 3.8645-0.204 7.7556-0.017 15.512-0.017 23.269 0 6.3142 0 11.789 4.492 12.814 10.74 0.8593 5.227-0.8041 9.641-5.0956 12.823-4.2388 3.142-8.9324 3.51-13.598 1.214-4.6659-2.297-7.1836-6.239-7.2715-11.571 0-0.523-0.0905-1.058 0.1106-1.567 0.2806-0.238 0.6376-0.367 1.005-0.361 1.8426-0.046 3.6852-0.046 5.5278 0 0.1804-0.013 0.3614 0.012 0.5314 0.074 0.1701 0.062 0.3254 0.159 0.456 0.284z" fill="#FEFEFE"/>
<path d="m173.37 119.91c1.372-0.025 2.764 0.079 4.113-0.098 3.144-0.409 5.139-2.92 4.915-5.999-0.209-2.851-2.631-5.047-5.671-5.047-4.204-0.023-8.407 0-12.608 0h-14.071c-0.691 0-1.065 0.035-1.075 0.934 0 0.966 0.479 0.908 1.123 0.903 2.424 0 4.849 0.023 7.286-0.02 0.737-0.015 0.98 0.179 0.958 0.946-0.053 1.903-0.041 3.811 0 5.719 0 0.616-0.136 0.835-0.797 0.833-5.094-0.027-10.186-0.027-15.277 0-0.562 0-0.753-0.136-0.753-0.74 0.02-5.11 0.027-10.22 0-15.331 0-0.873 0.502-0.734 1.025-0.734h17.46c5.739 0 11.478-0.081 17.216 0.023 5.277 0.095 9.224 2.705 11.483 7.404s1.809 9.398-1.419 13.6c-2.32 3.028-5.388 4.838-9.282 5.019-3.895 0.182-7.754 0.026-11.629 0.081-0.555 0-0.67-0.252-0.67-0.757 0.01-4.374 0.01-8.755 0-13.143 0-0.727 0.434-0.919 1.005-0.944 1.857-0.084 3.715-0.084 5.573 0 0.681 0.03 0.975 0.384 0.959 1.105-0.04 1.704-0.025 3.407 0 5.111-0.04 0.366-0.213 0.795 0.136 1.135z" fill="#FEFEFE"/>
<path d="m69.632 114.12c0 4.258-0.0251 8.147 0.0201 12.036 0 0.906-0.1558 1.289-1.1759 1.241-1.8518-0.093-3.7136-0.04-5.5705-0.02-0.5352 0-0.809-0.106-0.8065-0.729 0.0234-10.095 0.036-20.19 0.0377-30.284 0-0.0227 0.0628-0.0454 0.3743-0.265l17.86 18.536c0.4447-0.845 0.3241-1.29 0.3266-1.713 0.0126-3.534 0.0428-7.054-0.0175-10.58-0.0151-0.933 0.2512-1.166 1.1533-1.133 1.897 0.071 3.7965 0.041 5.6936 0.013 0.5628 0 0.7889 0.146 0.7889 0.744-0.0125 10.125 0 20.25 0 30.726l-18.684-18.572z" fill="#FEFEFE"/>
<path d="m173.37 119.91c-0.55-0.206-0.319-0.686-0.324-1.044-0.025-1.663-0.04-3.324 0-4.987 0.018-0.714-0.171-1.01-0.942-0.992-1.777 0.048-3.556 0.053-5.332 0-0.829-0.025-1.005 0.308-1.005 1.07 0.028 4.094 0.035 8.187 0 12.28 0 0.848 0.319 0.995 1.063 0.995 3.714 0 7.427 0.035 11.138 0.06-0.196 0.194-0.447 0.152-0.686 0.152-3.593 0-7.188-0.016-10.784 0.017-0.733 0-0.975-0.212-0.97-0.964 0.032-5.027 0.032-10.055 0-15.084 0-0.757 0.229-0.971 0.965-0.954 1.937 0.046 3.88 0.056 5.817 0 0.847-0.025 1.005 0.323 1.005 1.073-0.028 2.794-0.196 5.587 0.055 8.378z" fill="#BFBFBF"/>
<path d="m116.03 112.9h-6.244c-0.419 0-0.892-0.162-1.244 0.237l-1.301-2.67h7.895c0.635 0 0.628 0.439 0.741 0.883 0.168 0.498 0.221 1.028 0.153 1.55z" fill="#BFBFBF"/>
<path d="m42.338 112.88h-7.5178c-0.0244-0.116-0.0379-0.234-0.0402-0.353 0.1382-2.077 0.1382-2.077 2.2312-2.077h6.6283l-1.3015 2.43z" fill="#C0C0C0"/>
<g clip-path="url(#a)">
<path d="m190.38 93c0 0.6962 0.277 1.3639 0.769 1.8562 0.492 0.4922 1.16 0.7688 1.856 0.7688s1.364-0.2766 1.856-0.7688c0.492-0.4923 0.769-1.16 0.769-1.8562s-0.277-1.3639-0.769-1.8562c-0.492-0.4922-1.16-0.7688-1.856-0.7688s-1.364 0.2766-1.856 0.7688c-0.492 0.4923-0.769 1.16-0.769 1.8562zm5.625 0c0 0.7956-0.316 1.5587-0.879 2.1213-0.562 0.5626-1.325 0.8787-2.121 0.8787s-1.559-0.3161-2.121-0.8787c-0.563-0.5626-0.879-1.3257-0.879-2.1213s0.316-1.5587 0.879-2.1213c0.562-0.5626 1.325-0.8787 2.121-0.8787s1.559 0.3161 2.121 0.8787c0.563 0.5626 0.879 1.3257 0.879 2.1213zm-3.938-1.4993h1.167c0.641 0 1.028 0.3649 1.028 0.9225 0 0.4268-0.251 0.7275-0.561 0.84l0.616 1.2368h-0.57l-0.547-1.1535h-0.632v1.1535h-0.501v-2.9993zm0.501 0.4088v1.0414h0.581c0.373 0 0.59-0.1737 0.59-0.51 0-0.3424-0.224-0.5314-0.576-0.5314h-0.595z" fill="#222"/>
</g>
<defs>
<clipPath id="a">
<rect transform="translate(190 90)" width="6" height="6" fill="#fff"/>
</clipPath>
</defs>
</svg>
