<svg width="199" height="155" viewBox="0 0 199 155" fill="none" xmlns="http://www.w3.org/2000/svg">
<path d="M6.21875 133.08C6.21875 126.359 6.22461 119.637 6.23634 112.916L7.82683 112.835C6.97505 109.373 7.00771 106.006 8.69369 102.859C11.1259 98.3166 15.2039 96.1866 20.0935 95.3589C21.2127 95.1906 22.3441 95.118 23.4755 95.1418C31.3953 95.1418 39.305 95.1797 47.2349 95.1418C49.8222 95.1099 52.3926 95.5653 54.8129 96.4844C55.7627 96.8478 56.0894 96.8251 56.0693 95.6466C56.0039 91.3059 56.0441 86.9652 56.0441 82.6245V81.4788L74.3537 100.189L74.8034 99.9368C74.8034 98.6749 74.8361 97.4131 74.8034 96.1387C74.7808 95.4522 74.8939 95.1292 75.708 95.1444C81.6076 95.1797 87.5072 95.1797 93.4069 95.1444C94.1104 95.1444 94.3516 95.3589 94.2662 96.0377C94.2454 96.4025 94.2454 96.7682 94.2662 97.133C96.3366 96.1841 98.3718 95.4497 100.563 95.2831C101.246 95.2302 101.93 95.1671 102.616 95.1645C111.425 95.1645 120.234 95.1645 129.043 95.1645C130.941 95.1645 132.838 95.1645 134.712 95.538C135.4 95.6718 135.885 95.1242 136.601 95.1292C149.735 95.1822 162.868 95.1292 175.999 95.1872C181.351 95.21 186.382 96.4844 190.321 100.381C196.028 106.039 197.246 112.946 195.01 120.439C192.58 128.585 186.11 133.254 177.51 133.289C162.76 133.347 148.011 133.289 133.262 133.34C132.471 133.34 132.099 132.754 131.463 132.626C131.363 133.827 130.435 133.274 129.903 133.279C124.568 133.322 119.234 133.305 113.9 133.305C112.036 133.305 112.036 133.305 111.857 131.432C106.033 134.041 100.209 133.792 94.3064 131.379V146.877L76.0321 128.525L75.6024 128.739C75.6024 129.918 75.5622 131.096 75.615 132.272C75.6502 133.029 75.5019 133.322 74.6476 133.317C68.7882 133.274 62.9287 133.239 57.0592 133.332C55.5517 133.358 56.3055 132.245 55.9537 131.71C49.5992 134.145 43.8931 133.476 39.1191 131.429C39.0739 131.48 38.9884 131.528 38.9859 131.581C38.9005 133.347 38.9005 133.347 37.1241 133.297C35.8326 133.259 34.5411 133.224 33.2496 133.219C24.5224 133.185 15.796 133.156 7.07053 133.13C6.78409 133.125 6.50016 133.098 6.21875 133.08Z" fill="#222222"/>
<path d="M103.163 68.8251C102.771 69.1734 102.359 69.5015 101.99 69.8699C98.3291 73.5343 94.6607 77.1885 91.0299 80.8882C90.3289 81.5999 89.7108 81.8699 88.7033 81.4762C75.1351 76.2018 66.9891 66.4201 65.0067 51.9494C62.4262 33.1003 75.6652 15.4725 94.3642 12.328C98.0663 11.7091 101.84 11.6572 105.558 12.1741C105.596 12.7268 105.166 12.9085 104.905 13.1709C102.264 15.8485 99.5804 18.4958 96.9572 21.1987C96.4241 21.7417 95.7416 22.1125 94.9974 22.2637C84.2886 24.8428 77.5572 31.5331 75.0069 42.2485C72.5194 52.704 77.5422 64.2043 86.6931 69.7034C87.3489 70.0996 87.7334 70.0415 88.2208 69.4964C89.0274 68.5904 89.8967 67.7299 90.7334 66.8718C90.8641 66.2535 91.432 66.0062 91.8189 65.61C95.9497 61.4409 100.089 57.2811 104.236 53.1305C104.444 52.9379 104.638 52.7304 104.817 52.5097C105.113 52.1185 105.465 51.6845 105.04 51.2125C104.616 50.7406 104.153 51.0132 103.754 51.3236C103.251 51.7198 102.734 52.1185 102.246 52.5576C100.795 53.8555 99.1351 54.8958 97.3366 55.634C92.2812 57.8144 87.3364 55.2605 84.8489 51.311C82.2483 47.1823 83.1503 43.2605 85.6027 39.4674C86.4275 38.2535 87.3803 37.1324 88.4445 36.1236C91.2913 33.3047 94.1104 30.4555 96.9321 27.6113C97.3454 27.168 97.8192 26.7856 98.3392 26.4757C102.307 22.4883 106.302 18.5287 110.219 14.4958C111.025 13.6681 111.676 13.5444 112.731 13.9659C125.249 18.993 133.104 28.0529 135.546 41.3728C139.245 61.5393 125.267 80.0857 105.857 82.9753C102.63 83.5002 99.3442 83.5504 96.1029 83.1242C95.9723 82.6825 96.3366 82.5311 96.5452 82.3242C99.4498 79.3917 102.372 76.4718 105.277 73.5393C105.671 73.135 106.169 72.8485 106.716 72.7116C117.144 69.9128 124.704 61.5898 125.91 50.8491C127.104 40.2195 123.023 31.7905 114.189 25.7286C113.666 25.3728 113.319 25.3324 112.867 25.8422C112.008 26.8062 111.083 27.7122 110.189 28.6435C110.003 29.5621 109.241 30.0517 108.623 30.5917C105.533 33.2769 102.794 36.3204 99.8719 39.1722C98.6156 40.3886 97.3793 41.605 96.2009 42.8845C95.7361 43.3892 94.932 44.0605 95.5878 44.7368C96.2436 45.4132 96.917 44.6081 97.4196 44.1438C99.0628 42.6296 100.814 41.2794 102.857 40.328C109.138 37.4081 114.666 40.9589 116.812 46.0416C117.88 48.5652 117.709 51.1999 116.649 53.7362C115.713 55.9451 114.365 57.9532 112.676 59.6516C109.96 62.3923 107.229 65.1103 104.525 67.8308C104.139 68.2468 103.677 68.5844 103.163 68.8251V68.8251Z" fill="#24B8FE"/>
<path d="M44.4157 13.0675C46.8278 13.0928 48.2374 15.5533 47.0489 17.7817C45.1444 21.3603 43.4509 25.0246 42.2624 28.906C37.1668 45.5621 38.6919 61.5856 46.8379 76.9766C47.9635 79.0939 47.4761 81.1179 45.6142 81.9078C43.9986 82.5942 42.4282 81.986 41.4634 80.2447C38.5228 74.9763 36.3331 69.3195 34.9582 63.4397C31.0636 46.5665 33.1843 30.4866 41.3201 15.2C41.9986 13.9256 42.8855 13.0499 44.4157 13.0675Z" fill="#24B8FE"/>
<path d="M167.549 45.0019C167.514 59.1167 164.758 69.8675 159.341 79.9343C158.519 81.4485 157.331 82.1526 155.939 81.9533C155.274 81.8556 154.658 81.5485 154.178 81.0764C153.699 80.6043 153.381 79.9914 153.27 79.3261C153.099 78.4328 153.434 77.6681 153.851 76.906C157.316 70.618 159.615 63.7497 160.635 56.6359C162.524 43.2303 160.366 30.4984 153.964 18.5287C153.501 17.6656 153.049 16.8076 153.293 15.7678C153.597 14.4757 154.527 13.5218 155.7 13.3224C157.23 13.0701 158.383 13.5748 159.165 14.9603C161.003 18.246 162.544 21.6912 163.768 25.2543C166.263 32.5174 167.592 39.9748 167.549 45.0019Z" fill="#24B8FE"/>
<path d="M53.4385 18.1703C55.921 18.1703 57.308 20.6586 56.0542 22.9652C53.995 26.686 52.4129 30.6536 51.3455 34.7734C48.1629 47.3917 49.5281 59.5052 55.4411 71.1141C55.6622 71.5481 55.911 71.9671 56.1245 72.4011C56.9537 74.0869 56.4612 75.8863 54.9562 76.7241C53.3732 77.6024 51.5591 77.0648 50.6118 75.379C48.6194 71.852 47.037 68.1067 45.8956 64.2169C41.4784 48.9841 42.9651 34.3528 50.3555 20.323C51.0214 19.0283 51.8908 18.1173 53.4385 18.1703Z" fill="#24B8FE"/>
<path d="M157.213 47.5204C157.104 57.3147 154.873 66.3822 150.293 74.8466C149.25 76.7746 147.416 77.4257 145.755 76.4667C144.167 75.5582 143.785 73.7033 144.808 71.8056C148.822 64.4057 150.931 56.1156 150.944 47.6887C150.957 39.2618 148.872 30.9653 144.881 23.5533C144.378 22.6372 144.014 21.7186 144.288 20.6637C144.436 20.0694 144.759 19.5342 145.217 19.1287C145.674 18.7232 146.243 18.4665 146.848 18.3924C148.273 18.2208 149.376 18.7356 150.089 20.0126C152.174 23.7626 153.818 27.7429 154.989 31.8738C156.432 36.9642 157.18 42.2278 157.213 47.5204V47.5204Z" fill="#24B8FE"/>
<path d="M98.3266 26.4756C94.8776 30.0088 91.4278 33.5368 87.9771 37.0598C86.0022 39.0914 84.4242 41.3879 83.8438 44.2144C83.0046 48.2725 84.5976 51.4346 87.6555 53.9482C90.5776 56.3482 93.8365 56.7116 97.314 55.3109C99.6759 54.3595 101.653 52.8352 103.472 51.0838C104.025 50.5513 104.641 50.251 105.284 50.8314C105.927 51.4119 105.701 52.1084 105.166 52.6409C100.497 57.3029 95.8207 61.9549 91.1354 66.5967C91.0112 66.6981 90.8783 66.7885 90.7385 66.8668C85.6906 64.0907 82.0398 60.1109 80.1653 54.5967C75.8562 41.9179 84.1428 28.3911 97.3617 26.516C97.6824 26.4848 98.0045 26.4713 98.3266 26.4756V26.4756Z" fill="#222222"/>
<path d="M103.163 68.8252C106.314 65.6328 109.488 62.4605 112.606 59.2353C114.89 56.8681 116.533 54.1602 117.091 50.8164C118.154 44.4315 111.061 37.012 103.354 40.4341C101.146 41.4158 99.2563 42.8341 97.4974 44.4719C96.8567 45.0675 96.1155 45.9584 95.2511 45.0877C94.3868 44.217 95.2662 43.4372 95.8743 42.8315C100.631 38.0972 105.254 33.2265 110.169 28.6511C114.164 30.9224 117.35 33.9685 119.42 38.1148C125.797 50.8795 118.126 66.2536 104.126 68.7747C103.806 68.8106 103.485 68.8275 103.163 68.8252Z" fill="#222222"/>
<path d="M53.7702 47.6971C53.8431 39.5835 55.7351 32.0857 59.5492 25.0927C60.3508 23.6264 61.401 23.0737 62.9086 23.2504C63.5338 23.3306 64.1192 23.6027 64.5846 24.0295C65.0501 24.4564 65.373 25.0172 65.5092 25.6353C65.7353 26.5211 65.479 27.316 65.0619 28.0807C61.7863 34.0275 60.0589 40.709 60.04 47.5052C60.0211 54.3015 61.7113 60.9925 64.9539 66.9576C65.9916 68.8907 65.5971 70.786 63.9338 71.6794C62.2704 72.5727 60.5317 71.9166 59.494 70.0238C55.7534 63.1809 53.7852 55.5035 53.7702 47.6971V47.6971Z" fill="#24B8FE"/>
<path d="M146.863 46.5312C146.81 55.4195 144.984 62.8441 141.262 69.7892C140.343 71.5103 138.843 72.1917 137.262 71.6441C135.405 71.0006 134.634 68.9135 135.634 67.0384C137.64 63.3351 139.064 59.3426 139.855 55.2025C141.596 45.8245 140.238 36.9219 135.782 28.4946C134.704 26.4454 135.225 24.4391 137.039 23.6517C137.769 23.3334 138.593 23.3057 139.343 23.5741C140.093 23.8426 140.713 24.3872 141.079 25.0977C143.802 30.0262 145.6 35.4154 146.383 40.9968C146.692 43.1696 146.903 45.3476 146.863 46.5312Z" fill="#24B8FE"/>
<path d="M116.028 112.901C116.782 119.816 111.983 126.226 105.294 127.218C98.1055 128.283 91.5098 123.803 90.1756 116.911C88.4168 107.778 96.1331 100.936 103.06 101.108C112.671 101.345 122.292 101.209 131.908 101.244C133.715 101.249 135.472 101.838 136.921 102.922C138.369 104.007 139.432 105.53 139.953 107.268C140.472 108.989 140.42 110.834 139.803 112.522C139.187 114.211 138.04 115.652 136.536 116.628C135.566 117.257 135.817 117.494 136.405 118.238C137.589 119.737 139.014 120.05 140.83 120.023C148.303 119.906 155.778 119.947 163.253 119.884C164.145 119.884 164.429 120.076 164.389 121.004C164.306 122.826 164.338 124.654 164.389 126.478C164.389 127.149 164.23 127.389 163.519 127.387C154.224 127.365 144.927 127.365 135.629 127.387C134.915 127.387 134.521 126.985 134.099 126.561C131.529 123.986 128.958 121.407 126.385 118.826C126.109 118.551 125.9 118.18 125.327 118.019V125.784C125.327 127.371 125.327 127.371 123.712 127.371C122.013 127.371 120.317 127.351 118.619 127.384C117.985 127.384 117.794 127.18 117.797 126.544C117.82 121.517 117.832 116.487 117.797 111.457C117.797 110.617 118.156 110.556 118.802 110.559C122.762 110.579 126.722 110.559 130.682 110.559H131.531C132.154 110.559 132.727 110.375 132.732 109.66C132.737 108.946 132.214 108.719 131.564 108.737C131.199 108.737 130.835 108.737 130.473 108.737C121.428 108.737 112.376 108.737 103.317 108.737C100.204 108.737 97.9522 110.68 97.5376 113.663C97.108 116.691 99.4146 119.49 102.658 119.859C105.495 120.179 108.4 117.724 108.583 114.829C108.618 114.266 108.563 113.696 108.55 113.128C108.55 112.623 108.975 112.563 109.304 112.545C111.338 112.431 113.377 112.435 115.41 112.558C115.53 112.571 115.647 112.608 115.753 112.667C115.859 112.726 115.953 112.806 116.028 112.901V112.901Z" fill="#FEFEFE"/>
<path d="M42.3377 112.883C42.0664 114.763 42.2624 116.515 43.6343 117.981C45.466 119.944 48.0866 120.447 50.3505 119.243C51.4524 118.667 52.3313 117.738 52.8479 116.603C53.3645 115.468 53.4893 114.193 53.2023 112.979C52.8857 111.774 52.1823 110.708 51.2011 109.945C50.22 109.182 49.0158 108.765 47.7751 108.759C42.3629 108.719 36.9507 108.724 31.536 108.712C29.1138 108.712 26.6891 108.712 24.2644 108.712C23.983 108.712 23.6991 108.699 23.4177 108.712C22.8624 108.747 22.2719 108.893 22.2568 109.529C22.2418 110.241 22.8749 110.392 23.4604 110.445C24.4654 110.541 25.4856 110.536 26.4755 110.715C29.649 111.293 32.3551 112.555 33.3928 115.965C34.8752 120.83 32.1365 125.196 26.9655 126.269C25.375 126.599 23.7619 126.635 22.1488 126.64C18.8824 126.64 15.6034 126.619 12.332 126.657C11.5329 126.657 11.2993 126.428 11.3269 125.628C11.3847 123.846 11.4023 122.057 11.3269 120.277C11.2842 119.293 11.5304 118.963 12.5681 118.985C15.92 119.053 19.2743 119.011 22.6186 119.011C22.9026 119.011 23.184 119.011 23.4679 119.011C24.0508 118.998 24.5609 118.791 24.5684 118.147C24.576 117.504 24.1036 117.279 23.4981 117.267C22.2467 117.254 21.0006 117.103 19.7819 116.818C15.2592 115.725 13.1963 112.984 13.4501 108.315C13.6486 104.694 16.5833 101.908 20.7241 101.451C22.0079 101.316 23.2978 101.248 24.5886 101.247C32.3442 101.23 40.1007 101.23 47.858 101.247C54.1722 101.247 59.6472 105.739 60.6724 111.987C61.5317 117.214 59.8683 121.628 55.5768 124.81C51.338 127.952 46.6444 128.32 41.9784 126.024C37.3125 123.727 34.7948 119.785 34.7069 114.453C34.7069 113.93 34.6164 113.395 34.8175 112.886C35.0981 112.648 35.4551 112.519 35.8225 112.525C37.6651 112.479 39.5077 112.479 41.3503 112.525C41.5307 112.512 41.7117 112.537 41.8817 112.599C42.0518 112.661 42.2071 112.758 42.3377 112.883V112.883Z" fill="#FEFEFE"/>
<path d="M173.371 119.906C174.743 119.881 176.135 119.985 177.484 119.808C180.628 119.399 182.623 116.888 182.399 113.809C182.19 110.958 179.768 108.762 176.728 108.762C172.524 108.739 168.321 108.762 164.12 108.762C159.431 108.762 154.743 108.762 150.049 108.762C149.358 108.762 148.984 108.797 148.974 109.696C148.974 110.662 149.453 110.604 150.097 110.599C152.521 110.599 154.946 110.622 157.383 110.579C158.12 110.564 158.363 110.758 158.341 111.525C158.288 113.428 158.3 115.336 158.341 117.244C158.341 117.86 158.205 118.079 157.544 118.077C152.45 118.05 147.358 118.05 142.267 118.077C141.705 118.077 141.514 117.941 141.514 117.337C141.534 112.227 141.541 107.117 141.514 102.006C141.514 101.133 142.016 101.272 142.539 101.272H159.999C165.738 101.272 171.477 101.191 177.215 101.295C182.492 101.39 186.439 104 188.698 108.699C190.957 113.398 190.507 118.097 187.279 122.299C184.959 125.327 181.891 127.137 177.997 127.318C174.102 127.5 170.243 127.344 166.368 127.399C165.813 127.399 165.698 127.147 165.698 126.642C165.708 122.268 165.708 117.887 165.698 113.499C165.698 112.772 166.132 112.58 166.703 112.555C168.56 112.471 170.418 112.471 172.276 112.555C172.957 112.585 173.251 112.939 173.235 113.66C173.195 115.364 173.21 117.067 173.235 118.771C173.195 119.137 173.022 119.566 173.371 119.906Z" fill="#FEFEFE"/>
<path d="M69.6324 114.122C69.6324 118.38 69.6073 122.269 69.6525 126.158C69.6525 127.064 69.4967 127.447 68.4766 127.399C66.6248 127.306 64.763 127.359 62.9061 127.379C62.3709 127.379 62.0971 127.273 62.0996 126.65C62.123 116.555 62.1356 106.46 62.1373 96.3658C62.1373 96.3431 62.2001 96.3204 62.5116 96.1008L80.3714 114.637C80.8161 113.792 80.6955 113.347 80.698 112.924C80.7106 109.39 80.7408 105.87 80.6805 102.344C80.6654 101.411 80.9317 101.178 81.8338 101.211C83.7308 101.282 85.6303 101.252 87.5274 101.224C88.0902 101.224 88.3163 101.37 88.3163 101.968C88.3038 112.093 88.3163 122.218 88.3163 132.694L69.6324 114.122Z" fill="#FEFEFE"/>
<path d="M173.371 119.906C172.821 119.7 173.052 119.22 173.047 118.862C173.022 117.199 173.007 115.538 173.047 113.875C173.065 113.161 172.876 112.865 172.105 112.883C170.328 112.931 168.549 112.936 166.773 112.883C165.944 112.858 165.768 113.191 165.768 113.953C165.796 118.047 165.803 122.14 165.768 126.233C165.768 127.081 166.087 127.228 166.831 127.228C170.545 127.228 174.258 127.263 177.969 127.288C177.773 127.482 177.522 127.44 177.283 127.44C173.69 127.44 170.095 127.424 166.499 127.457C165.766 127.457 165.524 127.245 165.529 126.493C165.561 121.466 165.561 116.438 165.529 111.409C165.529 110.652 165.758 110.438 166.494 110.455C168.431 110.501 170.374 110.511 172.311 110.455C173.158 110.43 173.316 110.778 173.316 111.528C173.288 114.322 173.12 117.115 173.371 119.906Z" fill="#BFBFBF"/>
<path d="M116.028 112.901C113.948 112.901 111.865 112.901 109.784 112.901C109.365 112.901 108.892 112.739 108.54 113.138L107.239 110.468C109.93 110.468 112.533 110.468 115.134 110.468C115.769 110.468 115.762 110.907 115.875 111.351C116.043 111.849 116.096 112.379 116.028 112.901V112.901Z" fill="#BFBFBF"/>
<path d="M42.3378 112.883H34.82C34.7956 112.767 34.7821 112.649 34.7798 112.53C34.918 110.453 34.918 110.453 37.011 110.453H43.6393L42.3378 112.883Z" fill="#C0C0C0"/>
<g clip-path="url(#clip0_301_116)">
<path d="M190.375 93C190.375 93.6962 190.652 94.3639 191.144 94.8562C191.636 95.3484 192.304 95.625 193 95.625C193.696 95.625 194.364 95.3484 194.856 94.8562C195.348 94.3639 195.625 93.6962 195.625 93C195.625 92.3038 195.348 91.6361 194.856 91.1438C194.364 90.6516 193.696 90.375 193 90.375C192.304 90.375 191.636 90.6516 191.144 91.1438C190.652 91.6361 190.375 92.3038 190.375 93ZM196 93C196 93.7956 195.684 94.5587 195.121 95.1213C194.559 95.6839 193.796 96 193 96C192.204 96 191.441 95.6839 190.879 95.1213C190.316 94.5587 190 93.7956 190 93C190 92.2044 190.316 91.4413 190.879 90.8787C191.441 90.3161 192.204 90 193 90C193.796 90 194.559 90.3161 195.121 90.8787C195.684 91.4413 196 92.2044 196 93ZM192.062 91.5007H193.229C193.87 91.5007 194.257 91.8656 194.257 92.4232C194.257 92.85 194.006 93.1507 193.696 93.2632L194.312 94.5H193.742L193.195 93.3465H192.563V94.5H192.062V91.5007ZM192.563 91.9095V92.9509H193.144C193.517 92.9509 193.734 92.7772 193.734 92.4409C193.734 92.0985 193.51 91.9095 193.158 91.9095H192.563Z" fill="#222222"/>
</g>
<defs>
<clipPath id="clip0_301_116">
<rect width="6" height="6" fill="white" transform="translate(190 90)"/>
</clipPath>
</defs>
</svg>
