<svg width="44" height="44" viewBox="0 0 44 44" fill="none" xmlns="http://www.w3.org/2000/svg">
<path d="M14.3003 3.66675H29.7003C35.567 3.66675 40.3337 8.43342 40.3337 14.3001V29.7001C40.3337 32.5202 39.2134 35.2248 37.2192 37.219C35.2251 39.2131 32.5205 40.3334 29.7003 40.3334H14.3003C8.43366 40.3334 3.66699 35.5668 3.66699 29.7001V14.3001C3.66699 11.4799 4.78729 8.77532 6.78142 6.78118C8.77556 4.78704 11.4802 3.66675 14.3003 3.66675ZM13.9337 7.33341C12.1832 7.33341 10.5045 8.02877 9.26675 9.26651C8.02901 10.5043 7.33366 12.183 7.33366 13.9334V30.0667C7.33366 33.7151 10.2853 36.6667 13.9337 36.6667H30.067C31.8174 36.6667 33.4962 35.9714 34.7339 34.7337C35.9716 33.4959 36.667 31.8172 36.667 30.0667V13.9334C36.667 10.2851 33.7153 7.33341 30.067 7.33341H13.9337ZM31.6253 10.0834C32.2331 10.0834 32.816 10.3249 33.2458 10.7546C33.6756 11.1844 33.917 11.7673 33.917 12.3751C33.917 12.9829 33.6756 13.5658 33.2458 13.9955C32.816 14.4253 32.2331 14.6667 31.6253 14.6667C31.0175 14.6667 30.4346 14.4253 30.0049 13.9955C29.5751 13.5658 29.3337 12.9829 29.3337 12.3751C29.3337 11.7673 29.5751 11.1844 30.0049 10.7546C30.4346 10.3249 31.0175 10.0834 31.6253 10.0834ZM22.0003 12.8334C24.4315 12.8334 26.7631 13.7992 28.4821 15.5183C30.2012 17.2374 31.167 19.5689 31.167 22.0001C31.167 24.4312 30.2012 26.7628 28.4821 28.4819C26.7631 30.201 24.4315 31.1667 22.0003 31.1667C19.5692 31.1667 17.2376 30.201 15.5185 28.4819C13.7994 26.7628 12.8337 24.4312 12.8337 22.0001C12.8337 19.5689 13.7994 17.2374 15.5185 15.5183C17.2376 13.7992 19.5692 12.8334 22.0003 12.8334ZM22.0003 16.5001C20.5416 16.5001 19.1427 17.0795 18.1112 18.111C17.0798 19.1424 16.5003 20.5414 16.5003 22.0001C16.5003 23.4588 17.0798 24.8577 18.1112 25.8892C19.1427 26.9206 20.5416 27.5001 22.0003 27.5001C23.459 27.5001 24.858 26.9206 25.8894 25.8892C26.9209 24.8577 27.5003 23.4588 27.5003 22.0001C27.5003 20.5414 26.9209 19.1424 25.8894 18.111C24.858 17.0795 23.459 16.5001 22.0003 16.5001Z" fill="#0F4E6D"/>
</svg>
