<svg width="142" height="34" viewBox="0 0 142 34" fill="none" xmlns="http://www.w3.org/2000/svg">
<mask id="mask0_612_112" style="mask-type:luminance" maskUnits="userSpaceOnUse" x="0" y="0" width="142" height="34">
<path d="M0 0H142V33.1991H0V0Z" fill="white"/>
</mask>
<g mask="url(#mask0_612_112)">
<path d="M16.4883 0.067627C7.4763 0.067627 0.140384 7.41724 0.13696 16.4506C0.136104 19.3379 0.888527 22.1567 2.31976 24.6408L0 33.1323L8.66785 30.8536C11.0569 32.159 13.7456 32.8464 16.4823 32.8481H16.4883C25.5002 32.8481 32.8353 25.4968 32.8396 16.4643C32.8413 12.0859 31.1421 7.96936 28.0545 4.87321C24.9678 1.7762 20.8624 0.0693391 16.4883 0.067627ZM16.4883 30.0807H16.4831C14.0444 30.0807 11.6519 29.4233 9.56579 28.1829L9.06931 27.8876L3.92647 29.2401L5.29864 24.2145L4.97592 23.6992C3.61574 21.531 2.8967 19.0246 2.89841 16.4523C2.90098 8.94348 8.99826 2.83507 16.4942 2.83507C20.1245 2.83593 23.5366 4.25432 26.102 6.82916C28.6683 9.4023 30.0798 12.8246 30.079 16.4626C30.0764 23.9714 23.9791 30.0807 16.4883 30.0807ZM23.9432 19.8823C23.5348 19.6769 21.5258 18.6865 21.1509 18.5495C20.776 18.4125 20.5037 18.3449 20.2315 18.7549C19.9593 19.165 19.1761 20.0869 18.9381 20.3599C18.7002 20.6339 18.4613 20.6672 18.053 20.4627C17.6447 20.2572 16.3282 19.8249 14.7686 18.4305C13.553 17.3451 12.733 16.0038 12.495 15.5946C12.2571 15.1846 12.4693 14.9629 12.6748 14.7591C12.8588 14.576 13.0831 14.2815 13.2877 14.0418C13.4923 13.8021 13.5599 13.6318 13.696 13.3579C13.8312 13.0848 13.7636 12.846 13.6609 12.6405C13.559 12.436 12.7415 10.4209 12.4017 9.60089C12.0696 8.8031 11.7332 8.9101 11.4824 8.89812C11.2444 8.88528 10.9713 8.88356 10.6991 8.88356C10.4269 8.88356 9.98438 8.98628 9.60945 9.39545C9.23538 9.80547 8.17993 10.7959 8.17993 12.8109C8.17993 14.8259 9.64369 16.7733 9.84742 17.0464C10.052 17.3194 12.7287 21.4548 16.8272 23.2275C17.8022 23.6487 18.5623 23.9004 19.1564 24.0895C20.1348 24.4003 21.0259 24.3566 21.7295 24.2513C22.5136 24.1332 24.1469 23.2609 24.4867 22.3039C24.8274 21.3486 24.8274 20.5286 24.7247 20.3574C24.6228 20.1862 24.3498 20.0843 23.9423 19.8789L23.9432 19.8823ZM52.8691 19.6323H52.8254L50.1145 8.67384H46.848L44.0925 19.498H44.048L41.5374 8.67384H38.0483L42.2487 24.5766H45.7823L48.4256 13.7516H48.471L51.1597 24.5766H54.6264L58.8927 8.67384H55.4713L52.8699 19.6323H52.8691ZM69.5354 14.0521C69.2247 13.6446 68.7984 13.3253 68.2591 13.0942C67.7181 12.8657 67.0247 12.751 66.1807 12.751C65.5884 12.751 64.9815 12.9025 64.3583 13.2072C63.736 13.5111 63.2258 13.9982 62.8252 14.6658H62.7584V8.67384H59.6032V24.5757H62.7584V18.5401C62.7584 17.3674 62.9502 16.5251 63.3362 16.0115C63.7214 15.5004 64.3438 15.2436 65.2032 15.2436C65.9582 15.2436 66.4837 15.4773 66.7808 15.9456C67.077 16.4129 67.2259 17.1217 67.2259 18.0719V24.5757H70.382V17.4932C70.382 16.781 70.3178 16.1313 70.1919 15.5441C70.0661 14.9594 69.8487 14.4613 69.5371 14.0521H69.5354ZM82.5354 22.0146V16.0243C82.5354 15.325 82.3805 14.7651 82.0681 14.3423C81.7573 13.9194 81.3584 13.589 80.8697 13.351C80.38 13.1139 79.839 12.9538 79.2467 12.8725C78.6543 12.7912 78.0688 12.7501 77.4919 12.7501C76.855 12.7501 76.2216 12.8117 75.5924 12.9393C74.9616 13.066 74.3958 13.2774 73.8924 13.5744C73.3882 13.8715 72.9731 14.2652 72.6487 14.754C72.3217 15.2445 72.1368 15.8608 72.0923 16.6038H75.2475C75.3065 15.9807 75.5154 15.5338 75.8706 15.2667C76.2267 14.9997 76.7147 14.8661 77.337 14.8661C77.6177 14.8661 77.8805 14.885 78.1253 14.9218C78.3693 14.9594 78.5842 15.0322 78.7699 15.1443C78.9548 15.2556 79.1029 15.4114 79.2142 15.6126C79.3254 15.8129 79.3802 16.0842 79.3802 16.4249C79.3948 16.7519 79.2981 16.9993 79.0918 17.1705C78.8838 17.3425 78.6021 17.4727 78.2469 17.5608C77.8917 17.6507 77.4842 17.7175 77.0245 17.7603C76.5649 17.8065 76.0983 17.8673 75.625 17.94C75.1499 18.0145 74.6799 18.1138 74.2143 18.2405C73.7478 18.3663 73.3309 18.5564 72.9688 18.8072C72.6059 19.0614 72.3097 19.3987 72.0794 19.8215C71.85 20.2452 71.7353 20.7845 71.7353 21.4368C71.7353 22.03 71.8355 22.5427 72.0349 22.9725C72.2352 23.4047 72.5134 23.76 72.8686 24.0425C73.2239 24.3249 73.639 24.5329 74.1133 24.6665C74.5858 24.8 75.0985 24.8668 75.6464 24.8668C76.3577 24.8668 77.0545 24.7623 77.735 24.5561C78.4164 24.3463 79.0096 23.9842 79.5138 23.4629C79.5275 23.6564 79.5531 23.8464 79.5908 24.0313C79.6276 24.2154 79.6756 24.3985 79.7355 24.5757H82.9352C82.7871 24.3395 82.6827 23.9834 82.6236 23.5075C82.5637 23.0324 82.5337 22.5359 82.5337 22.0146H82.5354ZM79.3802 20.1211C79.3802 20.3017 79.3623 20.5388 79.3254 20.835C79.2886 21.1329 79.1885 21.4248 79.025 21.715C78.8615 22.0043 78.609 22.2543 78.2691 22.4614C77.9285 22.6703 77.4465 22.773 76.8234 22.773C76.5726 22.773 76.3277 22.7516 76.0906 22.7054C75.8535 22.6617 75.6464 22.583 75.4683 22.4717C75.2903 22.3604 75.1499 22.208 75.0463 22.0146C74.9427 21.8211 74.8905 21.5849 74.8905 21.3033C74.8905 21.0062 74.9427 20.7606 75.0463 20.568C75.1499 20.3754 75.2868 20.2153 75.458 20.0886C75.6267 19.9628 75.8278 19.8626 76.0572 19.7881C76.2867 19.7145 76.5195 19.6555 76.7575 19.6101C77.0091 19.5656 77.2616 19.5279 77.5124 19.4988C77.7658 19.4706 78.0064 19.432 78.2358 19.3875C78.466 19.343 78.68 19.2874 78.8803 19.2206C79.0806 19.153 79.2467 19.0623 79.3802 18.9424V20.1228V20.1211ZM88.4256 9.60945H85.2695V13.0608H83.3589V15.1769H85.2695V21.9709C85.2695 22.5504 85.3671 23.0178 85.5588 23.3739C85.7523 23.73 86.0151 24.0056 86.3472 24.1982C86.6811 24.3917 87.0663 24.521 87.5037 24.5877C87.9394 24.6536 88.4042 24.6879 88.893 24.6879C89.2054 24.6879 89.5221 24.6802 89.8491 24.6665C90.1744 24.6519 90.4706 24.6228 90.7385 24.5766V22.1267C90.5895 22.1567 90.4346 22.1807 90.2711 22.1944C90.1085 22.2089 89.9381 22.2166 89.7609 22.2166C89.2285 22.2166 88.8716 22.1267 88.6935 21.9487C88.5172 21.7706 88.4281 21.4145 88.4281 20.8787V15.1769H90.7393V13.0608H88.4281V9.60945H88.4256ZM101.468 19.5322C101.26 19.1684 100.987 18.8637 100.646 18.6188C100.306 18.3749 99.9157 18.1771 99.48 18.0282C99.0425 17.8801 98.594 17.7551 98.1352 17.6507C97.6909 17.5463 97.2552 17.4495 96.8246 17.3605C96.3949 17.2715 96.0132 17.1705 95.6802 17.0609C95.3472 16.9488 95.0775 16.805 94.8704 16.6261C94.6615 16.448 94.5597 16.2186 94.5597 15.9353C94.5597 15.6973 94.617 15.5081 94.7369 15.3669C94.855 15.2265 95.0005 15.1195 95.17 15.0433C95.3412 14.9697 95.5287 14.9218 95.7358 14.8987C95.9438 14.8773 96.1364 14.8661 96.3136 14.8661C96.8769 14.8661 97.3656 14.974 97.7816 15.1889C98.1951 15.4046 98.4262 15.8163 98.469 16.4249H101.469C101.41 15.7119 101.228 15.1221 100.924 14.6539C100.621 14.1865 100.239 13.8116 99.7804 13.5291C99.3216 13.2466 98.7994 13.0463 98.2131 12.9282C97.6276 12.8092 97.0249 12.7501 96.4035 12.7501C95.782 12.7501 95.1726 12.8058 94.5819 12.9153C93.9879 13.0275 93.4546 13.2209 92.9812 13.4957C92.507 13.7705 92.1261 14.1454 91.8367 14.6205C91.5466 15.0955 91.4027 15.7042 91.4027 16.4463C91.4027 16.9514 91.5072 17.3794 91.7152 17.7277C91.9206 18.0779 92.1963 18.3663 92.5352 18.5966C92.8776 18.8269 93.2663 19.0135 93.7028 19.153C94.1402 19.2959 94.5879 19.4175 95.0467 19.5219C96.1741 19.759 97.0523 19.997 97.6815 20.2358C98.3115 20.4729 98.6257 20.829 98.6257 21.3041C98.6257 21.5866 98.5598 21.8186 98.4262 22.0043C98.2918 22.1909 98.1258 22.339 97.9263 22.4494C97.7252 22.5616 97.5026 22.6438 97.2586 22.6951C97.0138 22.7473 96.7801 22.773 96.5584 22.773C96.2468 22.773 95.9472 22.7362 95.6588 22.6626C95.3694 22.5873 95.1144 22.4726 94.8909 22.3168C94.6692 22.1601 94.4869 21.9607 94.3465 21.715C94.207 21.4702 94.1351 21.1774 94.1351 20.835H91.1357C91.1665 21.6071 91.3394 22.2491 91.6587 22.7619C91.9763 23.2746 92.3829 23.6864 92.8802 23.9979C93.3767 24.3095 93.9442 24.5329 94.5819 24.6665C95.2171 24.8 95.8693 24.8668 96.5353 24.8668C97.2013 24.8668 97.8287 24.8034 98.4587 24.6785C99.0879 24.5518 99.6477 24.3326 100.136 24.0202C100.626 23.7095 101.02 23.2969 101.325 22.785C101.628 22.2714 101.78 21.638 101.78 20.8804C101.78 20.3445 101.676 19.896 101.469 19.533L101.468 19.5322ZM107.734 8.67384L101.735 24.5766H105.245L106.489 21.0353H112.423L113.621 24.5766H117.245L111.312 8.67384H107.733H107.734ZM107.401 18.4305L109.469 12.5943H109.512L111.513 18.4305H107.401ZM128.156 14.6213C127.727 14.0572 127.186 13.6044 126.534 13.2629C125.882 12.9213 125.105 12.751 124.202 12.751C123.49 12.751 122.839 12.8914 122.246 13.173C121.652 13.4555 121.164 13.9083 120.78 14.5323H120.735V13.0608H117.734V28.6092H120.892V23.1514H120.935C121.32 23.7172 121.814 24.1426 122.415 24.4311C123.013 24.7204 123.67 24.8659 124.381 24.8659C125.226 24.8659 125.963 24.7016 126.591 24.3754C127.221 24.0493 127.747 23.6102 128.17 23.0606C128.592 22.5111 128.906 21.8811 129.115 21.168C129.32 20.455 129.425 19.7128 129.425 18.9407C129.425 18.1232 129.32 17.3408 129.115 16.5901C128.906 15.8411 128.588 15.1837 128.158 14.6196L128.156 14.6213ZM126.135 20.2119C126.045 20.6578 125.893 21.0465 125.679 21.3812C125.464 21.715 125.183 21.9872 124.833 22.1944C124.486 22.4015 124.052 22.5068 123.534 22.5068C123.016 22.5068 122.602 22.4024 122.246 22.1944C121.891 21.9872 121.605 21.715 121.39 21.3812C121.175 21.0465 121.02 20.6578 120.924 20.2119C120.827 19.7659 120.78 19.3131 120.78 18.8542C120.78 18.3954 120.823 17.9178 120.912 17.4735C121.002 17.0284 121.153 16.6346 121.369 16.2914C121.582 15.9507 121.865 15.6725 122.214 15.4576C122.562 15.2419 122.994 15.1324 123.513 15.1324C124.032 15.1324 124.443 15.2419 124.791 15.4576C125.139 15.6716 125.424 15.9533 125.646 16.3034C125.868 16.6526 126.026 17.0498 126.124 17.4941C126.221 17.94 126.268 18.3937 126.268 18.8542C126.268 19.3148 126.225 19.7667 126.136 20.2119H126.135ZM141.688 16.5918C141.481 15.8437 141.163 15.1854 140.732 14.6213C140.303 14.0572 139.763 13.6044 139.112 13.2629C138.459 12.9213 137.681 12.751 136.778 12.751C136.067 12.751 135.415 12.8914 134.822 13.173C134.23 13.4555 133.74 13.9083 133.356 14.5323H133.312V13.0608H130.312V28.6092H133.467V23.1514H133.513C133.898 23.7172 134.391 24.1426 134.99 24.4311C135.589 24.7204 136.246 24.8659 136.957 24.8659C137.801 24.8659 138.537 24.7016 139.168 24.3754C139.797 24.0493 140.323 23.6102 140.745 23.0606C141.169 22.5111 141.482 21.8811 141.689 21.168C141.898 20.455 142.001 19.7128 142.001 18.9407C142.001 18.1232 141.898 17.3408 141.689 16.5901L141.688 16.5918ZM138.71 20.2119C138.622 20.6578 138.47 21.0465 138.255 21.3812C138.039 21.715 137.759 21.9872 137.41 22.1944C137.063 22.4015 136.629 22.5068 136.111 22.5068C135.591 22.5068 135.177 22.4024 134.821 22.1944C134.465 21.9872 134.18 21.715 133.965 21.3812C133.751 21.0465 133.595 20.6578 133.498 20.2119C133.401 19.7659 133.354 19.3131 133.354 18.8542C133.354 18.3954 133.399 17.9178 133.488 17.4735C133.576 17.0284 133.728 16.6346 133.943 16.2914C134.157 15.9507 134.44 15.6725 134.788 15.4576C135.136 15.2419 135.57 15.1324 136.088 15.1324C136.607 15.1324 137.017 15.2419 137.366 15.4576C137.714 15.6716 137.999 15.9533 138.222 16.3034C138.444 16.6526 138.604 17.0498 138.699 17.4941C138.797 17.94 138.844 18.3937 138.844 18.8542C138.844 19.3148 138.799 19.7667 138.71 20.2119Z" fill="white"/>
</g>
</svg>
