<svg width="15" height="15" viewBox="0 0 15 15" fill="none" xmlns="http://www.w3.org/2000/svg">
<path fill-rule="evenodd" clip-rule="evenodd" d="M10.9368 8.98876C10.7496 8.89564 9.83209 8.44689 9.66127 8.38439C9.49045 8.32251 9.36611 8.29189 9.24113 8.47814C9.11679 8.66314 8.75945 9.08189 8.65081 9.20564C8.54153 9.33001 8.43289 9.34501 8.24637 9.25251C8.05985 9.15876 7.45822 8.96314 6.74543 8.33064C6.1909 7.83814 5.81598 7.23001 5.70733 7.04376C5.59869 6.85814 5.6954 6.75751 5.78898 6.66501C5.87313 6.58189 5.97549 6.44814 6.06907 6.34002C6.16264 6.23127 6.19341 6.15377 6.25559 6.02939C6.31839 5.90564 6.28698 5.79752 6.23988 5.70439C6.19341 5.61127 5.82038 4.69689 5.66463 4.32502C5.51328 3.96314 5.35942 4.01252 5.24512 4.00627C5.13585 4.00127 5.0115 4.00002 4.88716 4.00002C4.76281 4.00002 4.56059 4.04627 4.38977 4.23252C4.21833 4.41814 3.73665 4.86752 3.73665 5.78189C3.73665 6.69564 4.40485 7.57876 4.49842 7.70314C4.59199 7.82689 5.8141 9.70313 7.68619 10.5075C8.13207 10.6988 8.47936 10.8131 8.75003 10.8981C9.19717 11.04 9.60412 11.02 9.92566 10.9719C10.2836 10.9188 11.0297 10.5225 11.1854 10.0888C11.3406 9.65501 11.3406 9.28314 11.2941 9.20564C11.2476 9.12814 11.1233 9.08189 10.9361 8.98876H10.9368ZM7.5317 13.6156H7.52918C6.41725 13.6158 5.32574 13.3184 4.36905 12.7544L4.14297 12.6206L1.79296 13.2344L2.42034 10.9544L2.27276 10.7206C1.65112 9.73585 1.32214 8.59612 1.32384 7.43314C1.3251 4.02689 4.10968 1.25565 7.53421 1.25565C9.19215 1.25565 10.7509 1.8994 11.9227 3.0669C12.5007 3.63976 12.9589 4.321 13.2706 5.0712C13.5823 5.82141 13.7415 6.62569 13.7389 7.43751C13.7377 10.8438 10.9531 13.6156 7.5317 13.6156ZM12.8145 2.18002C12.1226 1.48685 11.2993 0.937235 10.3923 0.563025C9.48539 0.188815 8.51285 -0.00254765 7.53107 2.56109e-05C3.41511 2.56109e-05 0.0640568 3.3344 0.0628008 7.43251C0.0608935 8.73673 0.404672 10.0184 1.05945 11.1481L0 15L3.95896 13.9663C5.05413 14.5601 6.28139 14.8712 7.52856 14.8713H7.5317C11.6477 14.8713 14.9987 11.5369 15 7.43814C15.003 6.46144 14.8114 5.49383 14.4363 4.59129C14.0612 3.68875 13.5099 2.86919 12.8145 2.18002Z" fill="#0F4E6D"/>
</svg>
